<?xml version="1.0" encoding="iso-8859-1"?>
<!-- Generator: Adobe Illustrator 19.0.0, SVG Export Plug-In . SVG Version: 6.00 Build 0)  -->
<svg version="1.1" id="Layer_1" xmlns="http://www.w3.org/2000/svg" xmlns:xlink="http://www.w3.org/1999/xlink" x="0px" y="0px"
	 viewBox="0 0 512 512" style="enable-background:new 0 0 512 512;" xml:space="preserve">
<g>
	<g>
		<path d="M478.657,123.455V89.86H139.585v15.674h323.399v300.933H15.674V105.533h71.143V89.86H0v332.28h478.657v-34.081H512
			V123.455H478.657z M496.326,372.386h-17.669V139.128h17.669V372.386z"/>
	</g>
</g>
<g>
	<g>
		<path d="M168.167,120.837c-74.53,0-135.163,60.634-135.163,135.163s60.633,135.163,135.163,135.163S303.33,330.53,303.33,256
			S242.697,120.837,168.167,120.837z M168.166,136.512c10.048,0,19.808,1.253,29.137,3.6L60.695,203.807
			C80.106,164.003,120.984,136.512,168.166,136.512z M48.678,256c0-10.802,1.449-21.27,4.149-31.23l165.54-77.185
			c9.682,4.501,18.663,10.261,26.735,17.07L48.681,256.242C48.681,256.161,48.678,256.081,48.678,256z M49.889,272.973
			l207.252-96.638c6.05,6.75,11.346,14.189,15.752,22.185l-80.889,37.719c-5.686-6.848-14.261-11.217-23.836-11.217
			c-17.081,0-30.978,13.897-30.978,30.977c0,1.899,0.181,3.755,0.51,5.561L56.797,299.29
			C53.536,290.931,51.195,282.117,49.889,272.973z M183.471,256c0,8.439-6.865,15.305-15.304,15.305
			c-8.44,0-15.305-6.866-15.305-15.305c0-8.439,6.865-15.304,15.305-15.304C176.606,240.696,183.471,247.561,183.471,256z
			 M63.443,313.484l80.888-37.723c5.687,6.847,14.261,11.216,23.835,11.216c17.081,0,30.977-13.897,30.977-30.978
			c0-1.899-0.181-3.754-0.51-5.56l80.904-37.725c3.26,8.359,5.601,17.173,6.907,26.316L79.2,335.673
			C73.148,328.922,67.851,321.482,63.443,313.484z M168.166,375.489c-10.043,0-19.798-1.252-29.124-3.596l136.59-63.691
			C256.223,348.001,215.346,375.489,168.166,375.489z M117.978,364.422c-9.684-4.501-18.667-10.261-26.74-17.07l196.414-91.59
			c0,0.079,0.003,0.159,0.003,0.238c0,10.805-1.45,21.276-4.151,31.239L117.978,364.422z"/>
	</g>
</g>
<g>
	<g>
		<rect x="105.107" y="89.86" width="15.674" height="15.674"/>
	</g>
</g>
<g>
	<g>
		<rect x="319.313" y="159.829" width="123.299" height="15.674"/>
	</g>
</g>
<g>
	<g>
		<rect x="426.938" y="120.833" width="15.674" height="15.674"/>
	</g>
</g>
<g>
	<g>
		<rect x="319.313" y="120.833" width="89.339" height="15.674"/>
	</g>
</g>
<g>
</g>
<g>
</g>
<g>
</g>
<g>
</g>
<g>
</g>
<g>
</g>
<g>
</g>
<g>
</g>
<g>
</g>
<g>
</g>
<g>
</g>
<g>
</g>
<g>
</g>
<g>
</g>
<g>
</g>
</svg>
