<?xml version="1.0" encoding="iso-8859-1"?>
<!-- Generator: Adobe Illustrator 19.0.0, SVG Export Plug-In . SVG Version: 6.00 Build 0)  -->
<svg version="1.1" id="Layer_1" xmlns="http://www.w3.org/2000/svg" xmlns:xlink="http://www.w3.org/1999/xlink" x="0px" y="0px"
	 viewBox="0 0 512 512" style="enable-background:new 0 0 512 512;" xml:space="preserve">
<g>
	<g>
		<path d="M285.034,41.175V0h-57.011v41.175H64.378v273.443h17.42v24.81h91.075L87.067,504.703l14.055,7.296l56.981-109.752h89.979
			v74.959h15.837V339.429h58.419l24.391,46.982h-32.661v15.836h40.883L411.931,512l14.055-7.296L340.18,339.429h90.021v-24.81h17.42
			V41.175H285.034z M243.859,15.836h25.338v25.338h-25.338V15.836z M248.082,386.41h-81.756l24.391-46.982h57.365V386.41z
			 M414.365,323.592H97.635v-8.974h316.73V323.592z M431.785,298.782H80.215V57.011h351.57V298.782z"/>
	</g>
</g>
<g>
	<g>
		<rect x="279.757" y="386.41" width="15.836" height="15.836"/>
	</g>
</g>
<g>
	<g>
		<polygon points="217.465,145.696 217.465,109.8 255.472,109.8 255.472,93.963 127.724,93.963 127.724,261.83 229.078,261.83 
			229.078,245.993 143.561,245.993 143.561,196.372 201.628,196.372 201.628,229.101 217.465,229.101 217.465,168.923 
			201.628,168.923 201.628,180.536 143.561,180.536 143.561,109.8 201.628,109.8 201.628,145.696 		"/>
	</g>
</g>
<g>
	<g>
		<path d="M278.699,93.963V109.8h19.004v16.892h-15.309v42.231h15.836v-26.394h70.208v103.465h-58.067v-43.814h43.286v-15.836
			h-59.123v59.651h-42.231v15.836h131.971V93.963H278.699z M320.93,126.692h-7.39V109.8h7.39V126.692z M344.156,126.692h-7.39V109.8
			h7.39V126.692z M368.439,126.692h-8.446V109.8h8.446V126.692z"/>
	</g>
</g>
<g>
</g>
<g>
</g>
<g>
</g>
<g>
</g>
<g>
</g>
<g>
</g>
<g>
</g>
<g>
</g>
<g>
</g>
<g>
</g>
<g>
</g>
<g>
</g>
<g>
</g>
<g>
</g>
<g>
</g>
</svg>
