<?xml version="1.0" encoding="iso-8859-1"?>
<!-- Generator: Adobe Illustrator 19.0.0, SVG Export Plug-In . SVG Version: 6.00 Build 0)  -->
<svg version="1.1" id="Layer_1" xmlns="http://www.w3.org/2000/svg" xmlns:xlink="http://www.w3.org/1999/xlink" x="0px" y="0px"
	 viewBox="0 0 512 512" style="enable-background:new 0 0 512 512;" xml:space="preserve">
<g>
	<g>
		<path d="M33.959,420.571c-10.082,0-18.286-8.203-18.286-18.286S23.877,384,33.959,384c10.082,0,18.286,8.203,18.286,18.286h15.673
			V117.551h52.245v-15.673H67.007c-1.428-6.078-4.51-11.656-9.033-16.177c-6.41-6.414-14.94-9.945-24.015-9.945
			C15.234,75.755,0,90.989,0,109.714v292.571c0,18.726,15.234,33.959,33.959,33.959h305.11v-15.673H33.959z M15.673,109.714
			c0-10.082,8.203-18.286,18.286-18.286c4.888,0,9.48,1.901,12.933,5.354c3.452,3.451,5.353,8.044,5.353,12.932v263.978
			c-5.283-3.391-11.556-5.366-18.286-5.366c-6.73,0-13.003,1.976-18.286,5.366V109.714z"/>
	</g>
</g>
<g>
	<g>
		<rect x="357.355" y="420.571" width="15.673" height="15.673"/>
	</g>
</g>
<g>
	<g>
		<path d="M478.041,75.755c-9.075,0-17.604,3.532-24.014,9.944c-4.523,4.522-7.606,10.101-9.034,16.178H172.931v15.673h271.151
			v284.735h15.674c0-10.082,8.203-18.286,18.286-18.286s18.286,8.203,18.286,18.286s-8.203,18.286-18.286,18.286h-86.204v15.673
			h86.204c18.726,0,33.959-15.234,33.959-33.959V109.714C512,90.989,496.766,75.755,478.041,75.755z M496.327,373.692
			c-5.283-3.39-11.556-5.366-18.286-5.366c-6.73,0-13.003,1.976-18.286,5.366V109.714c0-4.888,1.901-9.48,5.354-12.933
			c3.451-3.452,8.044-5.353,12.932-5.353c10.082,0,18.286,8.203,18.286,18.286V373.692z"/>
	</g>
</g>
<g>
	<g>
		<path d="M160.392,348.473v-99.265h15.151v-15.673h-30.824v22.988H128v-92.996h26.645v-15.673h-42.318v216.294h75.755v-15.673
			H160.392z M144.718,348.473H128v-7.314h16.718V348.473z M144.718,325.486H128v-7.314h16.718V325.486z M144.718,302.498H128v-7.314
			h16.718V302.498z M144.718,279.51H128v-7.314h16.718V279.51z"/>
	</g>
</g>
<g>
	<g>
		<path d="M398.629,253.388V147.853H200.62v15.673h47.543v70.008h-15.151v15.673h15.151v18.808h55.38v42.318h15.673v-42.318h37.094
			v-15.674h-92.473v-88.816h119.118v184.947h-63.739v-15.151h-15.673v15.151h-80.98v15.673h176.065v-36.571h27.167v-74.188H398.629z
			 M410.122,311.902h-11.494v-42.841h11.494V311.902z"/>
	</g>
</g>
<g>
	<g>
		<rect x="138.449" y="101.878" width="15.673" height="15.673"/>
	</g>
</g>
<g>
</g>
<g>
</g>
<g>
</g>
<g>
</g>
<g>
</g>
<g>
</g>
<g>
</g>
<g>
</g>
<g>
</g>
<g>
</g>
<g>
</g>
<g>
</g>
<g>
</g>
<g>
</g>
<g>
</g>
</svg>
