<?xml version="1.0" encoding="iso-8859-1"?>
<!-- Generator: Adobe Illustrator 19.0.0, SVG Export Plug-In . SVG Version: 6.00 Build 0)  -->
<svg version="1.1" id="Layer_1" xmlns="http://www.w3.org/2000/svg" xmlns:xlink="http://www.w3.org/1999/xlink" x="0px" y="0px"
	 viewBox="0 0 512 512" style="enable-background:new 0 0 512 512;" xml:space="preserve">
<g>
	<g>
		<path d="M425.779,188.869l82.194-82.194H375.87l-74.131,74.131H95.946l-58.499-58.498h88.234l50.949,50.865l10.959-10.977
			l-55.49-55.399H0l81.311,81.312L0,269.417h235.062l62.133-62.132v182.528H99.581v-72.386H84.07v87.898h337.774V269.417H512
			L425.779,188.869z M228.638,253.906H37.449l57.59-57.59h191.19L228.638,253.906z M406.333,389.812h-93.626V196.316h93.626V389.812
			z M411.906,180.805h-88.231l58.62-58.619h88.231L411.906,180.805z M421.845,206.419l50.831,47.487h-50.831V206.419z"/>
	</g>
</g>
<g>
	<g>
		<rect x="84.072" y="283.815" width="15.511" height="15.511"/>
	</g>
</g>
<g>
</g>
<g>
</g>
<g>
</g>
<g>
</g>
<g>
</g>
<g>
</g>
<g>
</g>
<g>
</g>
<g>
</g>
<g>
</g>
<g>
</g>
<g>
</g>
<g>
</g>
<g>
</g>
<g>
</g>
</svg>
