<?xml version="1.0" encoding="iso-8859-1"?>
<!-- Generator: Adobe Illustrator 19.0.0, SVG Export Plug-In . SVG Version: 6.00 Build 0)  -->
<svg version="1.1" id="Layer_1" xmlns="http://www.w3.org/2000/svg" xmlns:xlink="http://www.w3.org/1999/xlink" x="0px" y="0px"
	 viewBox="0 0 512 512" style="enable-background:new 0 0 512 512;" xml:space="preserve">
<g>
	<g>
		<rect x="248.163" y="91.429" width="15.673" height="15.673"/>
	</g>
</g>
<g>
	<g>
		<path d="M282.645,91.429v15.673h79.412v88.816H173.976v-88.816h55.902V91.429H0v329.143h512V91.429H282.645z M305.633,211.592
			v88.816H112.327v-88.816H305.633z M15.673,107.102h142.629v88.816h-128v15.673h66.351v88.816h-80.98V107.102z M167.967,404.898
			H15.673v-88.816h152.294V404.898z M384,404.898H183.641v-88.816H384V404.898z M496.327,404.898h-96.653v-88.816h47.543v-15.673
			h-125.91v-88.816h175.02V404.898z M496.327,195.918H377.731v-88.816h118.596V195.918z"/>
	</g>
</g>
<g>
	<g>
		<rect x="466.024" y="300.408" width="15.673" height="15.673"/>
	</g>
</g>
<g>
</g>
<g>
</g>
<g>
</g>
<g>
</g>
<g>
</g>
<g>
</g>
<g>
</g>
<g>
</g>
<g>
</g>
<g>
</g>
<g>
</g>
<g>
</g>
<g>
</g>
<g>
</g>
<g>
</g>
</svg>
