<?xml version="1.0" encoding="iso-8859-1"?>
<!-- Generator: Adobe Illustrator 19.0.0, SVG Export Plug-In . SVG Version: 6.00 Build 0)  -->
<svg version="1.1" id="Layer_1" xmlns="http://www.w3.org/2000/svg" xmlns:xlink="http://www.w3.org/1999/xlink" x="0px" y="0px"
	 viewBox="0 0 512 512" style="enable-background:new 0 0 512 512;" xml:space="preserve">
<g>
	<g>
		<polygon points="285.127,138.935 285.127,228.274 300.8,228.274 300.8,154.608 318.955,154.608 318.955,228.274 334.629,228.274 
			334.629,154.608 352.784,154.608 352.784,228.274 368.457,228.274 368.457,138.935 		"/>
	</g>
</g>
<g>
	<g>
		<rect x="237.714" y="34.445" width="177.633" height="15.673"/>
	</g>
</g>
<g>
	<g>
		<polygon points="207.935,57.36 207.935,73.033 234.58,73.033 234.58,478.6 270.629,478.6 270.629,462.926 250.253,462.926 
			250.253,73.033 403.331,73.033 403.331,241.857 419.004,241.857 419.004,73.033 445.127,73.033 445.127,57.36 		"/>
	</g>
</g>
<g>
	<g>
		<path d="M285.111,257.008v221.59H512v-221.59H285.111z M462.03,462.926H335.082v-19.087h119.449v-15.673H335.082v-19.088H462.03
			V462.926z M462.03,358.642h-85.867v15.673h85.867v19.088H335.082v-53.849H462.03V358.642z M496.327,462.926h-18.623V323.882
			H319.409v139.044h-18.624V272.682h195.542V462.926z"/>
	</g>
</g>
<g>
	<g>
		<polygon points="50.547,138.935 50.547,228.274 66.22,228.274 66.22,154.608 84.376,154.608 84.376,228.274 100.049,228.274 
			100.049,154.608 118.204,154.608 118.204,228.274 133.878,228.274 133.878,138.935 		"/>
	</g>
</g>
<g>
	<g>
		<polygon points="50.547,299.849 50.547,389.188 66.22,389.188 66.22,315.523 84.376,315.523 84.376,389.188 100.049,389.188 
			100.049,315.523 118.204,315.523 118.204,389.188 133.878,389.188 133.878,299.849 		"/>
	</g>
</g>
<g>
	<g>
		<path d="M78.89,33.4v26.122H0v419.076h184.424V33.4H78.89z M168.751,462.925H15.673V75.196h78.89V49.074h74.188V462.925z"/>
	</g>
</g>
<g>
	<g>
		<rect x="342.204" y="358.64" width="15.673" height="15.673"/>
	</g>
</g>
<g>
</g>
<g>
</g>
<g>
</g>
<g>
</g>
<g>
</g>
<g>
</g>
<g>
</g>
<g>
</g>
<g>
</g>
<g>
</g>
<g>
</g>
<g>
</g>
<g>
</g>
<g>
</g>
<g>
</g>
</svg>
