<?xml version="1.0" encoding="iso-8859-1"?>
<!-- Generator: Adobe Illustrator 19.0.0, SVG Export Plug-In . SVG Version: 6.00 Build 0)  -->
<svg version="1.1" id="Layer_1" xmlns="http://www.w3.org/2000/svg" xmlns:xlink="http://www.w3.org/1999/xlink" x="0px" y="0px"
	 viewBox="0 0 512 512" style="enable-background:new 0 0 512 512;" xml:space="preserve">
<g>
	<g>
		<polygon points="122.918,33.959 122.918,65.829 138.591,65.829 138.591,49.633 258.754,49.633 258.754,65.829 274.428,65.829 
			274.428,33.959 		"/>
	</g>
</g>
<g>
	<g>
		<polygon points="122.918,390.966 122.918,422.836 138.591,422.836 138.591,406.64 208.077,406.64 208.077,390.966 		"/>
	</g>
</g>
<g>
	<g>
		<polygon points="122.918,319.564 122.918,351.434 138.591,351.434 138.591,335.238 208.077,335.238 208.077,319.564 		"/>
	</g>
</g>
<g>
	<g>
		<polygon points="122.918,248.163 122.918,280.033 138.591,280.033 138.591,263.837 208.077,263.837 208.077,248.163 		"/>
	</g>
</g>
<g>
	<g>
		<polygon points="122.918,176.762 122.918,208.632 138.591,208.632 138.591,192.436 208.077,192.436 208.077,176.762 		"/>
	</g>
</g>
<g>
	<g>
		<polygon points="122.918,105.361 122.918,137.23 138.591,137.23 138.591,121.035 258.754,121.035 258.754,137.23 274.428,137.23 
			274.428,105.361 		"/>
	</g>
</g>
<g>
	<g>
		<polygon points="80.837,0 80.837,512 128.522,512 128.522,496.327 96.511,496.327 96.511,15.673 306.914,15.673 306.914,88.294 
			322.587,88.294 322.587,0 		"/>
	</g>
</g>
<g>
	<g>
		<rect x="306.918" y="106.58" width="15.673" height="15.673"/>
	</g>
</g>
<g>
	<g>
		<path d="M322.587,171.886v-30.825h-15.673v30.825h-83.78v324.441h-42.318V512h42.318h7.837h200.192V171.886H322.587z
			 M415.489,496.327H238.807V187.559h176.682V496.327z"/>
	</g>
</g>
<g>
	<g>
		<polygon points="262.863,206.367 262.863,238.237 278.536,238.237 278.536,222.041 375.759,222.041 375.759,238.237 
			391.432,238.237 391.432,206.367 		"/>
	</g>
</g>
<g>
	<g>
		<polygon points="262.863,272.196 262.863,304.065 278.536,304.065 278.536,287.869 375.759,287.869 375.759,304.065 
			391.432,304.065 391.432,272.196 		"/>
	</g>
</g>
<g>
	<g>
		<polygon points="262.863,338.024 262.863,369.894 278.536,369.894 278.536,353.698 375.759,353.698 375.759,369.894 
			391.432,369.894 391.432,338.024 		"/>
	</g>
</g>
<g>
	<g>
		<polygon points="262.863,403.853 262.863,435.722 278.536,435.722 278.536,419.527 375.759,419.527 375.759,435.722 
			391.432,435.722 391.432,403.853 		"/>
	</g>
</g>
<g>
	<g>
		<rect x="146.85" y="496.327" width="15.673" height="15.673"/>
	</g>
</g>
<g>
</g>
<g>
</g>
<g>
</g>
<g>
</g>
<g>
</g>
<g>
</g>
<g>
</g>
<g>
</g>
<g>
</g>
<g>
</g>
<g>
</g>
<g>
</g>
<g>
</g>
<g>
</g>
<g>
</g>
</svg>
