<?xml version="1.0" encoding="iso-8859-1"?>
<!-- Generator: Adobe Illustrator 19.0.0, SVG Export Plug-In . SVG Version: 6.00 Build 0)  -->
<svg version="1.1" id="Layer_1" xmlns="http://www.w3.org/2000/svg" xmlns:xlink="http://www.w3.org/1999/xlink" x="0px" y="0px"
	 viewBox="0 0 512 512" style="enable-background:new 0 0 512 512;" xml:space="preserve">
<g>
	<g>
		<path d="M172.435,90.972c-1.005-2.101-2.433-3.906-4.283-5.413c-1.851-1.505-4.112-2.76-6.778-3.765
			c-2.668-1.003-5.634-1.944-8.896-2.823l-2.353-0.566V62.119c1.82,0.19,3.577,0.551,5.272,1.083c1.694,0.536,3.248,1.13,4.66,1.79
			c1.412,0.658,2.636,1.303,3.671,1.929c1.035,0.63,1.742,1.162,2.118,1.601l5.742-10.543c-2.636-1.82-5.695-3.42-9.178-4.801
			c-3.483-1.381-7.296-2.227-11.438-2.542v-9.508h-5.648v9.602c-3.012,0.251-5.836,0.879-8.472,1.882
			c-2.636,1.005-4.911,2.386-6.825,4.143c-1.915,1.757-3.421,3.875-4.519,6.353c-1.099,2.48-1.647,5.289-1.647,8.425
			c0,2.574,0.391,4.786,1.177,6.638c0.784,1.852,1.961,3.483,3.53,4.895c1.568,1.412,3.53,2.636,5.884,3.671
			c2.353,1.036,5.13,1.994,8.331,2.872c0.565,0.188,1.13,0.362,1.694,0.517c0.565,0.157,1.13,0.298,1.694,0.425v16.19
			c-2.259-0.249-4.441-0.72-6.542-1.412c-2.103-0.69-4.018-1.426-5.742-2.212c-1.727-0.784-3.201-1.584-4.424-2.401
			c-1.224-0.815-2.088-1.473-2.589-1.976l-5.742,11.201c3.389,2.386,7.169,4.317,11.344,5.789c4.173,1.475,8.457,2.368,12.85,2.682
			v10.449h5.648v-10.355c3.074-0.127,6.009-0.581,8.802-1.365c2.792-0.784,5.239-1.961,7.343-3.53
			c2.102-1.567,3.766-3.577,4.989-6.025c1.224-2.448,1.836-5.397,1.836-8.848C173.941,95.665,173.438,93.076,172.435,90.972z
			 M146.171,77.275c-3.012-0.879-5.257-1.865-6.731-2.964c-1.476-1.097-2.212-2.715-2.212-4.848c0-4.58,2.98-7.06,8.943-7.438
			V77.275z M150.124,106.928V91.773c3.137,1.003,5.585,2.102,7.343,3.294c1.756,1.193,2.636,2.858,2.636,4.99
			C160.103,104.449,156.776,106.74,150.124,106.928z"/>
	</g>
</g>
<g>
	<g>
		<path d="M176.534,410.018v67.988h67.988v-67.988H176.534z M228.832,462.317h-36.609v-36.609h36.609V462.317z"/>
	</g>
</g>
<g>
	<g>
		<path d="M266.487,410.018v67.988h67.988v-67.988H266.487z M318.785,462.317h-36.609v-36.609h36.609V462.317z"/>
	</g>
</g>
<g>
	<g>
		<path d="M176.534,323.203v67.988h67.988v-67.988H176.534z M228.832,375.502h-36.609v-36.609h36.609V375.502z"/>
	</g>
</g>
<g>
	<g>
		<path d="M266.487,323.203v67.988h67.988v-67.988H266.487z M318.785,375.502h-36.609v-36.609h36.609V375.502z"/>
	</g>
</g>
<g>
	<g>
		<path d="M176.534,236.388v67.988h67.988v-67.988H176.534z M228.832,288.686h-36.609v-36.609h36.609V288.686z"/>
	</g>
</g>
<g>
	<g>
		<path d="M350.164,236.388v67.988h67.988v-67.988H350.164z M402.462,288.686h-36.609v-36.609h36.609V288.686z"/>
	</g>
</g>
<g>
	<g>
		<path d="M266.487,236.388v67.988h67.988v-67.988H266.487z M318.785,288.686h-36.609v-36.609h36.609V288.686z"/>
	</g>
</g>
<g>
	<g>
		<rect x="142.073" y="191.412" width="15.689" height="15.689"/>
	</g>
</g>
<g>
	<g>
		<path d="M233.096,65.373C222.943,27.762,188.546,0,147.77,0C99.035,0,59.386,39.648,59.386,88.384
			c0,48.736,39.649,88.384,88.384,88.384c10.07,0,19.741-1.715,28.764-4.831v34.778h241.618V99.367H235.448
			c0.449-3.601,0.707-7.261,0.707-10.983c0-2.467-0.128-4.905-0.327-7.322h201.097v415.248H157.762V225.406h-15.69V512h310.542
			V65.373H233.096z M147.77,161.079c-40.083,0-72.695-32.611-72.695-72.695c0-40.083,32.611-72.695,72.695-72.695
			c40.083,0,72.695,32.611,72.695,72.695C220.464,128.468,187.853,161.079,147.77,161.079z M402.462,115.056v75.969H192.223v-26.299
			c18.75-10.961,33.127-28.611,39.808-49.671C232.032,115.056,402.462,115.056,402.462,115.056z"/>
	</g>
</g>
<g>
	<g>
		<rect x="350.168" y="404.266" width="15.689" height="15.69"/>
	</g>
</g>
<g>
	<g>
		<polygon points="350.164,323.203 350.164,385.438 365.854,385.438 365.854,338.893 402.462,338.893 402.462,462.317 
			365.854,462.317 365.854,438.259 350.164,438.259 350.164,478.006 418.152,478.006 418.152,323.203 		"/>
	</g>
</g>
<g>
</g>
<g>
</g>
<g>
</g>
<g>
</g>
<g>
</g>
<g>
</g>
<g>
</g>
<g>
</g>
<g>
</g>
<g>
</g>
<g>
</g>
<g>
</g>
<g>
</g>
<g>
</g>
<g>
</g>
</svg>
