<?xml version="1.0" encoding="iso-8859-1"?>
<!-- Generator: Adobe Illustrator 19.0.0, SVG Export Plug-In . SVG Version: 6.00 Build 0)  -->
<svg version="1.1" id="Layer_1" xmlns="http://www.w3.org/2000/svg" xmlns:xlink="http://www.w3.org/1999/xlink" x="0px" y="0px"
	 viewBox="0 0 512 512" style="enable-background:new 0 0 512 512;" xml:space="preserve">
<g>
	<g>
		<rect x="151.51" y="244.694" width="208.98" height="15.673"/>
	</g>
</g>
<g>
	<g>
		<path d="M403.434,375.616c1.438-2.369,3.075-5.07,4.215-8.148H512V45.639H391.837v15.673h34.356
			c3.705,36.948,33.186,66.429,70.134,70.134V281.66c-36.948,3.705-66.429,33.186-70.134,70.134h-18.754
			c-1.125-2.853-2.652-5.376-4.004-7.603c-1.034-1.703-2.011-3.311-2.583-4.688c-0.622-1.5-1.1-3.405-1.607-5.422
			c-1.168-4.65-2.622-10.435-6.999-14.815c-4.378-4.377-10.165-5.832-14.813-6.999c-2.019-0.507-3.924-0.985-5.424-1.608
			c-1.376-0.572-2.984-1.547-4.687-2.582c-4.14-2.514-9.293-5.643-15.712-5.643s-11.571,3.128-15.711,5.642
			c-1.703,1.034-3.311,2.011-4.69,2.583c-1.5,0.623-3.406,1.101-5.424,1.608c-4.648,1.167-10.433,2.621-14.811,6.998
			c-4.378,4.379-5.832,10.166-7,14.816c-0.507,2.018-0.985,3.923-1.607,5.422c-0.572,1.377-1.549,2.985-2.583,4.688
			c-1.352,2.227-2.879,4.75-4.005,7.603H85.807c-3.705-36.948-33.186-66.429-70.134-70.134V131.446
			c36.948-3.705,66.428-33.186,70.134-70.134h253.262V45.639H0v321.829h295.567c1.14,3.078,2.777,5.779,4.215,8.148
			c1.033,1.702,2.011,3.31,2.582,4.685c0.148,0.358,0.287,0.743,0.422,1.143l-39.098,39.099l33.63,12.184l12.172,33.634
			l42.118-42.118l42.118,42.118l12.172-33.634l33.63-12.184l-39.098-39.099c0.135-0.4,0.274-0.784,0.422-1.142
			C401.423,378.926,402.4,377.318,403.434,375.616z M441.981,61.313h54.345v54.345C468.032,112.092,445.547,89.607,441.981,61.313z
			 M496.327,297.449v54.345h-54.345C445.547,323.498,468.032,301.013,496.327,297.449z M15.673,61.313h54.345
			c-3.565,28.295-26.05,50.78-54.345,54.345V61.313z M15.673,351.794v-54.345c28.295,3.565,50.78,26.05,54.345,54.345H15.673z
			 M315.839,437.847l-6.28-17.357l-17.362-6.29l16.464-16.463c0.667,0.977,1.426,1.919,2.31,2.803
			c4.378,4.377,10.165,5.832,14.815,6.999c2.018,0.507,3.923,0.985,5.422,1.607c1.376,0.572,2.984,1.547,4.687,2.582
			c1.19,0.723,2.468,1.495,3.832,2.231L315.839,437.847z M351.607,401.697c-2.032,0-4.725-1.636-7.577-3.367
			c-2.132-1.295-4.335-2.634-6.82-3.664c-2.565-1.064-5.128-1.707-7.607-2.329c-3.066-0.77-6.235-1.566-7.55-2.881
			c-1.316-1.317-2.111-4.486-2.882-7.551c-0.623-2.479-1.266-5.042-2.33-7.608c-1.029-2.484-2.369-4.687-3.663-6.819
			c-1.73-2.85-3.367-5.543-3.367-7.577c0.001-2.032,1.636-4.724,3.368-7.575c1.295-2.133,2.633-4.337,3.663-6.821
			c1.065-2.566,1.708-5.128,2.33-7.608c0.77-3.066,1.566-6.235,2.883-7.55c1.315-1.316,4.483-2.112,7.546-2.881
			c2.481-0.623,5.045-1.267,7.611-2.332c2.484-1.029,4.688-2.369,6.821-3.663c2.849-1.731,5.542-3.367,7.574-3.367
			c2.032,0,4.725,1.635,7.577,3.367c2.132,1.295,4.335,2.634,6.819,3.663c2.566,1.065,5.13,1.709,7.61,2.332
			c3.065,0.769,6.233,1.565,7.548,2.882c1.315,1.314,2.111,4.484,2.882,7.549c0.623,2.479,1.266,5.042,2.33,7.608
			c1.029,2.484,2.369,4.688,3.663,6.821c1.731,2.85,3.367,5.542,3.367,7.574c0,2.033-1.635,4.726-3.367,7.577
			c-1.295,2.132-2.633,4.336-3.663,6.819c-1.065,2.566-1.709,5.13-2.332,7.61c-0.769,3.065-1.565,6.233-2.882,7.549
			c-1.316,1.316-4.484,2.112-7.549,2.881c-2.479,0.623-5.042,1.266-7.608,2.33c-2.484,1.029-4.688,2.369-6.821,3.663
			C356.332,400.062,353.64,401.697,351.607,401.697z M411.019,414.201l-17.362,6.289l-6.281,17.357l-23.887-23.887
			c1.364-0.736,2.64-1.508,3.831-2.231c1.703-1.034,3.311-2.011,4.688-2.583c1.499-0.622,3.405-1.1,5.422-1.607
			c4.649-1.167,10.435-2.621,14.815-6.999c0.884-0.884,1.643-1.826,2.31-2.803L411.019,414.201z"/>
	</g>
</g>
<g>
	<g>
		<rect x="150.988" y="198.719" width="244.506" height="15.673"/>
	</g>
</g>
<g>
	<g>
		<rect x="116.506" y="198.719" width="15.674" height="15.673"/>
	</g>
</g>
<g>
	<g>
		<rect x="116.506" y="152.743" width="244.506" height="15.673"/>
	</g>
</g>
<g>
	<g>
		<rect x="379.82" y="152.743" width="15.673" height="15.673"/>
	</g>
</g>
<g>
	<g>
		<rect x="357.355" y="45.639" width="15.673" height="15.674"/>
	</g>
</g>
<g>
</g>
<g>
</g>
<g>
</g>
<g>
</g>
<g>
</g>
<g>
</g>
<g>
</g>
<g>
</g>
<g>
</g>
<g>
</g>
<g>
</g>
<g>
</g>
<g>
</g>
<g>
</g>
<g>
</g>
</svg>
