<?xml version="1.0" encoding="iso-8859-1"?>
<!-- Generator: Adobe Illustrator 19.0.0, SVG Export Plug-In . SVG Version: 6.00 Build 0)  -->
<svg version="1.1" id="Layer_1" xmlns="http://www.w3.org/2000/svg" xmlns:xlink="http://www.w3.org/1999/xlink" x="0px" y="0px"
	 viewBox="0 0 512 512" style="enable-background:new 0 0 512 512;" xml:space="preserve">
<g>
	<g>
		<rect x="365.192" y="150.309" width="15.673" height="15.673"/>
	</g>
</g>
<g>
	<g>
		<polygon points="399.151,150.314 399.151,165.987 496.327,165.987 496.327,414.572 433.912,352.156 176.609,352.156 
			176.609,277.108 351.06,277.108 351.06,59.589 0,59.589 0,200.478 15.673,200.478 15.673,75.263 335.386,75.263 335.386,261.435 
			77.904,261.435 15.673,323.666 15.673,253.246 0,253.246 0,361.504 84.395,277.108 160.935,277.108 160.935,367.829 
			427.42,367.829 512,452.411 512,150.314 		"/>
	</g>
</g>
<g>
	<g>
		<rect y="218.76" width="15.673" height="15.673"/>
	</g>
</g>
<g>
	<g>
		<path d="M175.528,106.121l-67.701,43.808l8.512,13.161l9.511-6.153v72.14h99.356v-0.001v-72.142l9.513,6.156l8.514-13.159
			L175.528,106.121z M209.533,213.404h-68.009v-66.608l34.006-22.005l34.003,22.002V213.404z"/>
	</g>
</g>
<g>
</g>
<g>
</g>
<g>
</g>
<g>
</g>
<g>
</g>
<g>
</g>
<g>
</g>
<g>
</g>
<g>
</g>
<g>
</g>
<g>
</g>
<g>
</g>
<g>
</g>
<g>
</g>
<g>
</g>
</svg>
