<?xml version="1.0" encoding="iso-8859-1"?>
<!-- Generator: Adobe Illustrator 19.0.0, SVG Export Plug-In . SVG Version: 6.00 Build 0)  -->
<svg version="1.1" id="Layer_1" xmlns="http://www.w3.org/2000/svg" xmlns:xlink="http://www.w3.org/1999/xlink" x="0px" y="0px"
	 viewBox="0 0 512 512" style="enable-background:new 0 0 512 512;" xml:space="preserve">
<g>
	<g>
		<rect x="61.649" y="332.362" width="158.824" height="15.673"/>
	</g>
</g>
<g>
	<g>
		<rect x="119.118" y="242.291" width="15.674" height="15.673"/>
	</g>
</g>
<g>
	<g>
		<rect x="317.649" y="377.397" width="98.22" height="15.673"/>
	</g>
</g>
<g>
	<g>
		<rect x="434.678" y="377.397" width="15.673" height="15.673"/>
	</g>
</g>
<g>
	<g>
		<path d="M440.376,197.258l70.908-70.908l-52.458-52.458l-26.555,26.556L415.86,84.037l-61.957,61.956l11.083,11.083l50.874-50.874
			l5.328,5.328L290.423,242.295H153.078v15.673H274.75l-10.612,10.612l-1.328,1.329l-5.667,17.419H61.649v15.673h190.395
			l-14.527,44.658l77.751-25.293l19.365-19.365h115.718v-15.673H350.306l29.362-29.362h70.683v-15.673H395.34l29.362-29.362h71.625
			v209.502H15.673V212.932h248.686v-15.673H0v240.849h512V197.258H440.376z M458.826,96.058l30.293,30.293l-15.473,15.473
			l-30.293-30.293L458.826,96.058z M261.945,323.232l11.232-34.53L296.474,312L261.945,323.232z M311.056,304.414l-30.293-30.293
			l151.508-151.508l30.292,30.294L311.056,304.414z"/>
	</g>
</g>
<g>
	<g>
		<rect x="283.167" y="197.256" width="15.673" height="15.673"/>
	</g>
</g>
<g>
</g>
<g>
</g>
<g>
</g>
<g>
</g>
<g>
</g>
<g>
</g>
<g>
</g>
<g>
</g>
<g>
</g>
<g>
</g>
<g>
</g>
<g>
</g>
<g>
</g>
<g>
</g>
<g>
</g>
</svg>
