<?xml version="1.0" encoding="iso-8859-1"?>
<!-- Generator: Adobe Illustrator 19.0.0, SVG Export Plug-In . SVG Version: 6.00 Build 0)  -->
<svg version="1.1" id="Layer_1" xmlns="http://www.w3.org/2000/svg" xmlns:xlink="http://www.w3.org/1999/xlink" x="0px" y="0px"
	 viewBox="0 0 512 512" style="enable-background:new 0 0 512 512;" xml:space="preserve">
<g>
	<g>
		
			<rect x="277.342" y="284.561" transform="matrix(0.9537 -0.3008 0.3008 0.9537 -74.8536 99.3307)" width="15.627" height="16.392"/>
	</g>
</g>
<g>
	<g>
		<path d="M382.065,370.901h-32.808l-51.239-162.426c3.761-6.835,5.907-14.69,5.907-23.025c0-23.765-17.389-43.539-40.112-47.279
			v-38.153h15.628V0h-46.884v100.018h15.628v38.153c-22.723,3.74-40.112,23.515-40.112,47.279c0,8.335,2.136,16.18,5.897,23.015
			l-51.228,162.436h-32.808v15.628h27.88l-15.753,49.947L165.879,512l39.57-125.471h27.109v2.084
			c0,12.929,10.512,23.442,23.442,23.442c12.929,0,23.442-10.512,23.442-23.442v-2.084h27.109L346.121,512l23.817-75.524
			l-15.753-49.947h27.88V370.901z M248.186,15.628h15.628V84.39h-15.628V15.628z M256,153.153c17.805,0,32.298,14.492,32.298,32.298
			c0,5.095-1.188,9.929-3.303,14.221c-1.125,2.282-2.511,4.417-4.126,6.366c-5.928,7.147-14.878,11.711-24.869,11.711
			c-9.991,0-18.941-4.563-24.869-11.711c-1.615-1.948-3.001-4.084-4.126-6.366c-2.115-4.292-3.303-9.127-3.303-14.221
			C223.702,167.645,238.195,153.153,256,153.153z M165.879,460.053l-7.439-23.577l67.439-213.789
			c3.761,3.053,7.981,5.553,12.554,7.345L165.879,460.053z M263.814,388.613c0,4.313-3.501,7.814-7.814,7.814
			c-4.313,0-7.814-3.501-7.814-7.814v-19.795c0-4.313,3.501-7.814,7.814-7.814c4.313,0,7.814,3.501,7.814,7.814V388.613z
			 M346.121,460.053l-45.123-143.068l-14.899,4.709l15.524,49.207h-22.181v-2.084c0-12.929-10.512-23.442-23.442-23.442
			c-12.929,0-23.442,10.512-23.442,23.442v2.084h-22.171l43.393-137.577c0.729,0.031,1.479,0.052,2.219,0.052
			c0.74,0,1.49-0.021,2.219-0.052c0.007,0,0.015-0.001,0.022-0.001c-0.007,0-0.014,0.001-0.021,0.001l11.435,36.262l14.905-4.7
			l-10.992-34.856c4.573-1.792,8.791-4.291,12.551-7.344l67.439,213.789L346.121,460.053z"/>
	</g>
</g>
<g>
</g>
<g>
</g>
<g>
</g>
<g>
</g>
<g>
</g>
<g>
</g>
<g>
</g>
<g>
</g>
<g>
</g>
<g>
</g>
<g>
</g>
<g>
</g>
<g>
</g>
<g>
</g>
<g>
</g>
</svg>
