<?xml version="1.0" encoding="iso-8859-1"?>
<!-- Generator: Adobe Illustrator 19.0.0, SVG Export Plug-In . SVG Version: 6.00 Build 0)  -->
<svg version="1.1" id="Layer_1" xmlns="http://www.w3.org/2000/svg" xmlns:xlink="http://www.w3.org/1999/xlink" x="0px" y="0px"
	 viewBox="0 0 512 512" style="enable-background:new 0 0 512 512;" xml:space="preserve">
<g>
	<g>
		<path d="M496.343,111.482v38.106h-121.47V98.286l-81.719-77.353h-80.541l-81.719,77.353v51.303h-13.985v-77.1H68.893v77.1H51.148
			v-41.002H0v96.033h51.148v-39.373h17.745v325.82h48.016V355.976h275.572v18.359H131.801v15.657h260.681v101.074h48.016V253.159
			H424.84v222.251h-16.701V165.248h16.701v35.198h15.657v-35.2h55.845v38.105H512v-91.869H496.343z M35.49,188.963H15.658v-64.718
			H35.49V188.963z M101.252,475.409H84.55V88.148h16.701V475.409z M146.552,105.024l72.297-68.435h68.069l72.297,68.435v121.873
			l-71.261,40.801h-70.14l-71.261-40.801V105.024z M392.481,340.319H116.909V165.247h13.985v70.726l82.754,47.383h78.47
			l82.754-47.383v-70.728h17.608V340.319z"/>
	</g>
</g>
<g>
	<g>
		<rect x="221.867" y="207.159" width="106.628" height="15.658"/>
	</g>
</g>
<g>
	<g>
		<rect x="177.285" y="207.159" width="20.265" height="15.658"/>
	</g>
</g>
<g>
	<g>
		<rect x="424.84" y="218.714" width="15.657" height="15.657"/>
	</g>
</g>
<g>
</g>
<g>
</g>
<g>
</g>
<g>
</g>
<g>
</g>
<g>
</g>
<g>
</g>
<g>
</g>
<g>
</g>
<g>
</g>
<g>
</g>
<g>
</g>
<g>
</g>
<g>
</g>
<g>
</g>
</svg>
