<?xml version="1.0" encoding="iso-8859-1"?>
<!-- Generator: Adobe Illustrator 19.0.0, SVG Export Plug-In . SVG Version: 6.00 Build 0)  -->
<svg version="1.1" id="Layer_1" xmlns="http://www.w3.org/2000/svg" xmlns:xlink="http://www.w3.org/1999/xlink" x="0px" y="0px"
	 viewBox="0 0 512 512" style="enable-background:new 0 0 512 512;" xml:space="preserve">
<g>
	<g>
		<path d="M213.844,110.733L99.794,82.526l-50.847,50.848l34.819,107.849l64.322,64.321h87.793l42.49-42.49v-87.793L213.844,110.733
			z M66.807,137.68l37.814-37.815l89.865,22.227L94.164,222.414L66.807,137.68z M262.698,256.563h-0.001l-33.308,33.308h-74.809
			l-29.103-29.103l65.143-65.143l-11.083-11.083l-65.143,65.143l-12.666-12.666l108.118-108.118l52.853,52.853V256.563z"/>
	</g>
</g>
<g>
	<g>
		
			<rect x="200.326" y="155.926" transform="matrix(0.7071 -0.7071 0.7071 0.7071 -53.8784 197.4521)" width="22.162" height="15.673"/>
	</g>
</g>
<g>
	<g>
		<path d="M512,278.984l-49.069-74.45H349.518v114.939H0v63.739h37.347l-4.276,6.802l13.271,8.338l20.682-32.904h137.627
			l20.682,32.904l13.271-8.338l-4.275-6.8h20.104v19.851h96.131v-19.851h20.104l-4.275,6.8l13.271,8.338l20.682-32.904h57.169
			l20.682,32.904l13.271-8.338l-4.276-6.802H512V278.984z M418.482,220.207h36.008l35.122,53.29h-71.13V220.207z M334.89,387.391
			h-64.784v-24.033h64.784V387.391z M496.327,307.978h-19.331v15.673h19.331v43.886h-18.986l-11.166-17.763h-74.488L380.52,367.54
			h-29.957v-19.855h-96.131v19.855h-29.956l-11.167-17.765H58.364l-11.166,17.763H15.673v-32.392h349.518V220.207h37.616v68.963
			h93.518V307.978z"/>
	</g>
</g>
<g>
	<g>
		<path d="M428.931,372.005c-15.844,0-28.735,12.891-28.735,28.735c0,15.844,12.891,28.735,28.735,28.735
			c15.844,0,28.735-12.891,28.735-28.735C457.665,384.895,444.774,372.005,428.931,372.005z M428.931,413.8
			c-7.202,0-13.061-5.859-13.061-13.061c0-7.203,5.859-13.061,13.061-13.061c7.203,0,13.061,5.859,13.061,13.061
			C441.992,407.942,436.133,413.8,428.931,413.8z"/>
	</g>
</g>
<g>
	<g>
		<path d="M179.722,372.005c-15.844,0-28.735,12.891-28.735,28.735c0,15.844,12.891,28.735,28.735,28.735
			c15.844,0,28.735-12.891,28.735-28.735C208.457,384.895,195.566,372.005,179.722,372.005z M179.722,413.8
			c-7.203,0-13.061-5.859-13.061-13.061c0-7.203,5.859-13.061,13.061-13.061c7.202,0,13.061,5.859,13.061,13.061
			C192.784,407.942,186.925,413.8,179.722,413.8z"/>
	</g>
</g>
<g>
	<g>
		<path d="M91.951,372.005c-15.844,0-28.735,12.891-28.735,28.735c0,15.844,12.891,28.735,28.735,28.735
			c15.844,0,28.735-12.891,28.735-28.735C120.686,384.895,107.795,372.005,91.951,372.005z M91.951,413.8
			c-7.203,0-13.061-5.859-13.061-13.061c0-7.203,5.859-13.061,13.061-13.061c7.202,0,13.061,5.859,13.061,13.061
			C105.012,407.942,99.153,413.8,91.951,413.8z"/>
	</g>
</g>
<g>
</g>
<g>
</g>
<g>
</g>
<g>
</g>
<g>
</g>
<g>
</g>
<g>
</g>
<g>
</g>
<g>
</g>
<g>
</g>
<g>
</g>
<g>
</g>
<g>
</g>
<g>
</g>
<g>
</g>
</svg>
