<?xml version="1.0" encoding="iso-8859-1"?>
<!-- Generator: Adobe Illustrator 19.0.0, SVG Export Plug-In . SVG Version: 6.00 Build 0)  -->
<svg version="1.1" id="Layer_1" xmlns="http://www.w3.org/2000/svg" xmlns:xlink="http://www.w3.org/1999/xlink" x="0px" y="0px"
	 viewBox="0 0 512 512" style="enable-background:new 0 0 512 512;" xml:space="preserve">
<g>
	<g>
		<rect x="279.011" y="107.211" width="15.69" height="15.69"/>
	</g>
</g>
<g>
	<g>
		<path d="M263.845,19.066V0h-15.689v40.482l-194.55,69.034v44.764h44.977v66.942H74.525v46.022h24.057v50.246
			c-3.614,4.993-5.753,11.121-5.753,17.742c0,16.726,13.607,30.333,30.333,30.333c2.338,0,4.612-0.275,6.799-0.778v9.669
			c0,7.21-5.865,13.075-13.075,13.075s-13.075-5.865-13.075-13.075v-1.268h-15.69v1.268c0,15.861,12.903,28.764,28.764,28.764
			c15.861,0,28.764-12.903,28.764-28.764v-18.89c4.872-5.384,7.845-12.517,7.845-20.334c0-6.621-2.139-12.749-5.753-17.742v-50.246
			H171.8v-46.022h-24.057V154.28h72.695v265.23l-17.258,31.379v17.181h-41.98L139.234,512h233.534l-21.965-43.931h-41.981v-17.181
			l-17.258-31.379V154.28h36.086v48.114h107.734V154.28h23.011v-44.215L263.845,19.066z M248.155,57.131v50.081H107.017
			L248.155,57.131z M123.162,349.875c-8.075,0-14.643-6.569-14.643-14.644c0-8.075,6.569-14.643,14.643-14.643
			s14.643,6.569,14.643,14.643C137.806,343.307,131.237,349.875,123.162,349.875z M114.272,306.23v-38.986h17.781v38.986
			c-2.813-0.864-5.798-1.332-8.891-1.332S117.084,305.366,114.272,306.23z M156.11,236.911v14.644H90.215v-14.644H156.11z
			 M114.272,221.222V154.28h17.781v66.942H114.272z M341.104,483.759l6.277,12.552H164.619l6.276-12.552H341.104z M293.133,454.917
			v13.152h-0.001h-74.264v-13.152l14.053-25.549h46.16L293.133,454.917z M236.127,184.518V154.28h29.137L236.127,184.518z
			 M275.873,165.881v76.557l-36.721-38.451L275.873,165.881z M272.871,262.01l-36.745,38.48v-76.955L272.871,262.01z
			 M275.873,281.585v85.022l-37.162-46.104L275.873,281.585z M275.873,391.607v22.072h-39.747v-71.382L275.873,391.607z
			 M419.694,186.705h-76.355V154.28h76.355V186.705z M442.705,138.59H69.295v-15.689h194.549V36.387l151.417,70.824H313.005v15.69
			h129.7V138.59z"/>
	</g>
</g>
<g>
</g>
<g>
</g>
<g>
</g>
<g>
</g>
<g>
</g>
<g>
</g>
<g>
</g>
<g>
</g>
<g>
</g>
<g>
</g>
<g>
</g>
<g>
</g>
<g>
</g>
<g>
</g>
<g>
</g>
</svg>
