<?xml version="1.0" encoding="iso-8859-1"?>
<!-- Generator: Adobe Illustrator 19.0.0, SVG Export Plug-In . SVG Version: 6.00 Build 0)  -->
<svg version="1.1" id="Layer_1" xmlns="http://www.w3.org/2000/svg" xmlns:xlink="http://www.w3.org/1999/xlink" x="0px" y="0px"
	 viewBox="0 0 512 512" style="enable-background:new 0 0 512 512;" xml:space="preserve">
<g>
	<g>
		<path d="M422.712,77.302v-38.4h-38.36V0H154.535L49.8,104.734v329.961h38.368v38.904h39.476V512H462.2V77.302H422.712z
			 M149.944,26.756v73.387H76.556L149.944,26.756z M65.474,419.023V115.818h100.144V15.673h203.06v403.349H65.474z M446.526,496.327
			h-0.001H143.317V473.6h279.395V194.873h-15.674v263.053H103.841v-23.23h280.511V54.575h22.687v87.531h15.673V92.975h23.813
			V496.327z"/>
	</g>
</g>
<g>
	<g>
		<rect x="105.074" y="209.512" width="224.005" height="15.673"/>
	</g>
</g>
<g>
	<g>
		<rect x="212.135" y="69.837" width="116.945" height="15.673"/>
	</g>
</g>
<g>
	<g>
		<rect x="105.074" y="139.671" width="224.005" height="15.673"/>
	</g>
</g>
<g>
	<g>
		<rect x="105.074" y="279.353" width="224.005" height="15.674"/>
	</g>
</g>
<g>
	<g>
		<rect x="105.074" y="349.184" width="82.465" height="15.673"/>
	</g>
</g>
<g>
	<g>
		<rect x="206.346" y="349.184" width="15.673" height="15.673"/>
	</g>
</g>
<g>
	<g>
		<rect x="407.039" y="160.392" width="15.673" height="15.673"/>
	</g>
</g>
<g>
</g>
<g>
</g>
<g>
</g>
<g>
</g>
<g>
</g>
<g>
</g>
<g>
</g>
<g>
</g>
<g>
</g>
<g>
</g>
<g>
</g>
<g>
</g>
<g>
</g>
<g>
</g>
<g>
</g>
</svg>
