<?xml version="1.0" encoding="iso-8859-1"?>
<!-- Generator: Adobe Illustrator 19.0.0, SVG Export Plug-In . SVG Version: 6.00 Build 0)  -->
<svg version="1.1" id="Layer_1" xmlns="http://www.w3.org/2000/svg" xmlns:xlink="http://www.w3.org/1999/xlink" x="0px" y="0px"
	 viewBox="0 0 512.001 512.001" style="enable-background:new 0 0 512.001 512.001;" xml:space="preserve">
<g>
	<g>
		<rect x="279.212" y="196.879" width="15.651" height="15.651"/>
	</g>
</g>
<g>
	<g>
		<rect x="63.96" y="175.218" width="166.943" height="15.651"/>
	</g>
</g>
<g>
	<g>
		<rect x="63.96" y="214.543" width="166.943" height="15.651"/>
	</g>
</g>
<g>
	<g>
		<rect x="63.96" y="326.531" width="166.943" height="15.651"/>
	</g>
</g>
<g>
	<g>
		<rect x="63.96" y="364.072" width="121.869" height="15.651"/>
	</g>
</g>
<g>
	<g>
		<rect x="63.96" y="135.736" width="75.124" height="15.651"/>
	</g>
</g>
<g>
	<g>
		<rect x="157.866" y="135.736" width="15.651" height="15.651"/>
	</g>
</g>
<g>
	<g>
		<rect x="63.96" y="253.472" width="15.651" height="15.651"/>
	</g>
</g>
<g>
	<g>
		<rect x="97.87" y="253.472" width="110.078" height="15.651"/>
	</g>
</g>
<g>
	<g>
		
			<rect x="425.053" y="175.652" transform="matrix(0.7071 -0.7071 0.7071 0.7071 -2.951 359.8304)" width="15.651" height="15.651"/>
	</g>
</g>
<g>
	<g>
		<path d="M459.617,63.023L265.209,257.431l-1.326,1.328l-25.256,77.639l40.586-13.203v110.132H15.651V82.121h263.561v95.981h15.651
			V66.47H0v382.508h294.863V318.103l21.403-6.963l103.329-103.328l-11.067-11.067L307.854,297.42l-44.835,14.585l14.585-44.834
			l155.453-155.453l9.591,9.591L285.867,278.089l11.068,11.067l156.78-156.78l9.591,9.591l-17.52,17.52l11.067,11.067l55.147-55.148
			L459.617,63.023z M444.124,100.649l15.493-15.493l30.249,30.249l-15.493,15.493L444.124,100.649z"/>
	</g>
</g>
<g>
</g>
<g>
</g>
<g>
</g>
<g>
</g>
<g>
</g>
<g>
</g>
<g>
</g>
<g>
</g>
<g>
</g>
<g>
</g>
<g>
</g>
<g>
</g>
<g>
</g>
<g>
</g>
<g>
</g>
</svg>
