<?xml version="1.0" encoding="iso-8859-1"?>
<!-- Generator: Adobe Illustrator 19.0.0, SVG Export Plug-In . SVG Version: 6.00 Build 0)  -->
<svg version="1.1" id="Layer_1" xmlns="http://www.w3.org/2000/svg" xmlns:xlink="http://www.w3.org/1999/xlink" x="0px" y="0px"
	 viewBox="0 0 512 512" style="enable-background:new 0 0 512 512;" xml:space="preserve">
<g>
	<g>
		<rect x="291.374" y="184.467" width="15.722" height="15.722"/>
	</g>
</g>
<g>
	<g>
		<path d="M0,109.789v292.422h120.532V296.352h164.14l62.251-62.251V109.789H0z M15.722,335.866h14.149v-15.722H15.722v0V303.06
			h14.149v-15.722H15.722v-17.084h14.149v-15.722H15.722v-17.084h14.149v-15.722H15.722v-17.608h33.539V352.95H15.722V335.866z
			 M331.202,227.59l-24.106,24.106v-32.642h-15.722v48.364l-13.212,13.212H104.811v105.859H15.722v-17.818h49.261V188.397H15.722
			v-62.886h275.652v40.614h15.722v-40.614h24.106V227.59z"/>
	</g>
</g>
<g>
	<g>
		<polygon points="442.156,166.387 429.433,144.026 400.043,144.026 390.724,127.645 354.784,127.645 354.784,143.366 
			381.579,143.366 390.899,159.747 420.291,159.747 428.54,174.248 420.291,188.748 390.899,188.748 381.579,205.129 
			354.784,205.129 354.784,220.851 390.724,220.851 400.043,204.47 429.433,204.47 442.156,182.109 512,182.109 512,166.387 		"/>
	</g>
</g>
<g>
	<g>
		<rect x="210.145" y="246.043" width="52.405" height="15.722"/>
	</g>
</g>
<g>
	<g>
		<rect x="210.145" y="211.455" width="52.405" height="15.722"/>
	</g>
</g>
<g>
	<g>
		<rect x="210.145" y="176.868" width="52.405" height="15.722"/>
	</g>
</g>
<g>
	<g>
		<path d="M151.975,302.117c0,14.159-11.519,25.679-25.679,25.679v15.722c22.828,0,41.4-18.572,41.4-41.4H151.975z"/>
	</g>
</g>
<g>
</g>
<g>
</g>
<g>
</g>
<g>
</g>
<g>
</g>
<g>
</g>
<g>
</g>
<g>
</g>
<g>
</g>
<g>
</g>
<g>
</g>
<g>
</g>
<g>
</g>
<g>
</g>
<g>
</g>
</svg>
