<?xml version="1.0" encoding="iso-8859-1"?>
<!-- Generator: Adobe Illustrator 19.0.0, SVG Export Plug-In . SVG Version: 6.00 Build 0)  -->
<svg version="1.1" id="Layer_1" xmlns="http://www.w3.org/2000/svg" xmlns:xlink="http://www.w3.org/1999/xlink" x="0px" y="0px"
	 viewBox="0 0 512 512" style="enable-background:new 0 0 512 512;" xml:space="preserve">
<g>
	<g>
		<path d="M437.29,448.784V47.543H74.71v401.241H34.482v15.673h443.037v-15.673H437.29z M248.163,448.784H142.629V115.461h105.535
			V448.784z M369.371,448.784H263.837V115.461h105.535V448.784z M421.616,448.784h-36.571V99.788h-258.09v348.996H90.384V63.216
			h331.233V448.784z"/>
	</g>
</g>
<g>
	<g>
		<rect x="395.494" y="231.184" width="15.673" height="15.674"/>
	</g>
</g>
<g>
	<g>
		<rect x="395.494" y="265.143" width="15.673" height="15.673"/>
	</g>
</g>
<g>
	<g>
		<rect x="213.943" y="73.665" width="15.673" height="15.673"/>
	</g>
</g>
<g>
	<g>
		<rect x="247.902" y="73.665" width="15.673" height="15.673"/>
	</g>
</g>
<g>
	<g>
		<rect x="282.384" y="73.665" width="15.673" height="15.673"/>
	</g>
</g>
<g>
	<g>
		<rect x="496.327" y="448.784" width="15.673" height="15.673"/>
	</g>
</g>
<g>
	<g>
		<rect y="448.784" width="15.673" height="15.673"/>
	</g>
</g>
<g>
</g>
<g>
</g>
<g>
</g>
<g>
</g>
<g>
</g>
<g>
</g>
<g>
</g>
<g>
</g>
<g>
</g>
<g>
</g>
<g>
</g>
<g>
</g>
<g>
</g>
<g>
</g>
<g>
</g>
</svg>
