<?xml version="1.0" encoding="iso-8859-1"?>
<!-- Generator: Adobe Illustrator 19.0.0, SVG Export Plug-In . SVG Version: 6.00 Build 0)  -->
<svg version="1.1" id="Layer_1" xmlns="http://www.w3.org/2000/svg" xmlns:xlink="http://www.w3.org/1999/xlink" x="0px" y="0px"
	 viewBox="0 0 512 512" style="enable-background:new 0 0 512 512;" xml:space="preserve">
<g>
	<g>
		<path d="M491.583,352.065L491.583,352.065v-32.95c0-82.865-67.417-150.281-150.281-150.281H325.54
			c-13.77-28.031-39.83-48.972-71.109-55.756V88.474h65.44V44.499h-65.441v-3.665c0-12.125-9.864-21.988-21.988-21.988
			s-21.988,9.863-21.988,21.988v3.665h-65.44v43.975h65.44v24.604c-31.28,6.784-57.34,27.724-71.109,55.756H0v86.181h137.082
			c4.183,9.819,9.884,19.007,16.976,27.196l11.873-10.282c-13.827-15.964-21.44-36.402-21.44-57.549
			c0-48.497,39.455-87.951,87.951-87.951c48.496,0,87.951,39.454,87.951,87.951c0,48.497-39.455,87.951-87.951,87.951
			c-9.714,0-19.256-1.571-28.359-4.67l-5.061,14.868c10.736,3.654,21.98,5.507,33.42,5.507c42.741,0,79.52-26.004,95.354-63.021
			h13.505c35.345,0,64.101,28.755,64.101,64.099v32.95h-20.093v15.706H512v-15.706H491.583z M131.852,239.31H15.706v-54.77H133.17
			c-2.847,9.455-4.385,19.471-4.385,29.841C128.785,222.847,129.845,231.21,131.852,239.31z M226.159,40.834
			c0-3.465,2.818-6.282,6.282-6.282s6.282,2.818,6.282,6.282v3.665h-12.564V40.834z M160.72,72.769V60.204h143.444v12.564H160.72z
			 M238.724,110.92c-2.079-0.125-4.172-0.196-6.282-0.196s-4.203,0.071-6.282,0.196V88.474h12.564V110.92z M475.877,352.065h-54.77
			v-32.95c0-44.005-35.8-79.805-79.805-79.805h-8.241c1.98-7.989,3.037-16.338,3.037-24.93c0-10.37-1.538-20.386-4.385-29.841h9.589
			c74.205,0,134.575,60.37,134.575,134.575V352.065z"/>
	</g>
</g>
<g>
	<g>
		<path d="M176.215,282.014l-10.048,12.071c4.93,4.104,10.266,7.766,15.856,10.884l7.651-13.717
			C184.929,288.606,180.401,285.497,176.215,282.014z"/>
	</g>
</g>
<g>
	<g>
		<path d="M474.691,406.581c-9.152-13.018-18.169-23.382-18.549-23.818l-5.917-6.782l-5.917,6.783
			c-0.379,0.436-9.397,10.799-18.549,23.818c-13.103,18.635-19.472,32.582-19.472,42.634c0,24.226,19.71,43.937,43.938,43.937
			c24.227,0,43.938-19.71,43.938-43.938C494.163,439.162,487.794,425.217,474.691,406.581z M450.225,477.448
			c-15.567,0-28.232-12.665-28.232-28.232c0-10.625,15.495-33.291,28.232-49.061c12.737,15.769,28.232,38.435,28.232,49.061
			C478.457,464.783,465.792,477.448,450.225,477.448z"/>
	</g>
</g>
<g>
</g>
<g>
</g>
<g>
</g>
<g>
</g>
<g>
</g>
<g>
</g>
<g>
</g>
<g>
</g>
<g>
</g>
<g>
</g>
<g>
</g>
<g>
</g>
<g>
</g>
<g>
</g>
<g>
</g>
</svg>
