<?xml version="1.0" encoding="iso-8859-1"?>
<!-- Generator: Adobe Illustrator 19.0.0, SVG Export Plug-In . SVG Version: 6.00 Build 0)  -->
<svg version="1.1" id="Layer_1" xmlns="http://www.w3.org/2000/svg" xmlns:xlink="http://www.w3.org/1999/xlink" x="0px" y="0px"
	 viewBox="0 0 512 512" style="enable-background:new 0 0 512 512;" xml:space="preserve">
<g>
	<g>
		<path d="M512,217.234v-47.02h-32.392v-36.362l-39.184-28.735l-39.184,28.735v36.362h-44.583v-36.362l-39.184-28.735
			l-39.184,28.735v36.362h-44.583v-36.362l-39.184-28.735l-39.184,28.735v36.362h-44.582v-36.362l-39.184-28.735l-39.184,28.735
			v36.362H0v47.02h32.392v79.412H0v47.02h32.392v63.216h78.367v-63.216h44.583v63.216h78.367v-63.216h44.583v63.216h78.367v-63.216
			h44.582v63.216h78.367v-63.216H512v-47.02h-32.392v-79.412H512z M479.608,185.887h16.718v15.673h-16.718V185.887z M32.392,327.993
			H15.673V312.32h16.718V327.993z M32.392,201.561H15.673v-15.673h16.718V201.561z M233.708,185.887h44.583v15.673h-44.583V185.887z
			 M155.342,327.993h-44.583V312.32h44.583V327.993z M155.342,296.647h-44.583v-13.322H95.086V391.21h-47.02V141.794l23.51-17.241
			l23.51,17.241v88.763h15.673v-13.322h44.583V296.647z M155.342,201.561h-44.583v-15.673h44.583V201.561z M218.036,391.21h-47.02
			V141.794l23.51-17.241l23.51,17.241V391.21z M233.708,296.647v-79.412h44.583v79.412H233.708z M278.292,327.993h-44.583V312.32
			h44.583V327.993z M401.241,327.993h-44.583V312.32h44.583V327.993z M401.241,296.647h-44.583v-13.322h-15.673V391.21h-47.02
			V141.794l23.51-17.241l23.51,17.241v88.763h15.673v-13.322h44.583V296.647z M401.241,201.561h-44.583v-15.673h44.583V201.561z
			 M463.935,391.21h-47.02V141.794l23.51-17.241l23.51,17.241V391.21z M496.327,312.32v15.673h-16.718V312.32H496.327z"/>
	</g>
</g>
<g>
	<g>
		<rect x="95.086" y="248.842" width="15.673" height="15.673"/>
	</g>
</g>
<g>
	<g>
		<rect x="340.982" y="248.842" width="15.673" height="15.673"/>
	</g>
</g>
<g>
</g>
<g>
</g>
<g>
</g>
<g>
</g>
<g>
</g>
<g>
</g>
<g>
</g>
<g>
</g>
<g>
</g>
<g>
</g>
<g>
</g>
<g>
</g>
<g>
</g>
<g>
</g>
<g>
</g>
</svg>
