<?xml version="1.0" encoding="iso-8859-1"?>
<!-- Generator: Adobe Illustrator 19.0.0, SVG Export Plug-In . SVG Version: 6.00 Build 0)  -->
<svg version="1.1" id="Layer_1" xmlns="http://www.w3.org/2000/svg" xmlns:xlink="http://www.w3.org/1999/xlink" x="0px" y="0px"
	 viewBox="0 0 512 512" style="enable-background:new 0 0 512 512;" xml:space="preserve">
<g>
	<g>
		
			<rect x="387.188" y="370.174" transform="matrix(0.7071 -0.7071 0.7071 0.7071 -163.6279 395.0264)" width="15.673" height="49.712"/>
	</g>
</g>
<g>
	<g>
		
			<rect x="423.629" y="423.621" transform="matrix(0.7071 -0.7071 0.7071 0.7071 -178.7242 431.4698)" width="15.673" height="15.705"/>
	</g>
</g>
<g>
	<g>
		<rect x="427.75" y="248.166" width="84.25" height="15.673"/>
	</g>
</g>
<g>
	<g>
		<rect x="365.103" y="96.924" transform="matrix(0.7071 -0.7071 0.7071 0.7071 45.197 318.637)" width="84.249" height="15.673"/>
	</g>
</g>
<g>
	<g>
		
			<rect x="96.933" y="62.647" transform="matrix(0.7071 -0.7071 0.7071 0.7071 -43.3988 104.7704)" width="15.673" height="84.249"/>
	</g>
</g>
<g>
	<g>
		<rect y="248.166" width="84.25" height="15.673"/>
	</g>
</g>
<g>
	<g>
		
			<rect x="62.638" y="399.402" transform="matrix(0.7071 -0.7071 0.7071 0.7071 -257.2771 193.3557)" width="84.249" height="15.673"/>
	</g>
</g>
<g>
	<g>
		
			<rect x="158.768" y="193.814" transform="matrix(0.3885 -0.9214 0.9214 0.3885 -83.8719 276.9149)" width="15.874" height="15.673"/>
	</g>
</g>
<g>
	<g>
		<polygon points="393.199,199.941 276.616,199.941 326.134,92.476 204.232,92.476 170.489,172.5 184.93,178.59 214.633,108.15 
			301.654,108.15 252.137,215.614 359.964,215.614 223.41,381.241 249.117,268.002 147.228,268.002 162.9,230.835 148.458,224.746 
			123.608,283.676 229.486,283.676 193.512,442.144 		"/>
	</g>
</g>
<g>
</g>
<g>
</g>
<g>
</g>
<g>
</g>
<g>
</g>
<g>
</g>
<g>
</g>
<g>
</g>
<g>
</g>
<g>
</g>
<g>
</g>
<g>
</g>
<g>
</g>
<g>
</g>
<g>
</g>
</svg>
