<?xml version="1.0" encoding="iso-8859-1"?>
<!-- Generator: Adobe Illustrator 19.0.0, SVG Export Plug-In . SVG Version: 6.00 Build 0)  -->
<svg version="1.1" id="Layer_1" xmlns="http://www.w3.org/2000/svg" xmlns:xlink="http://www.w3.org/1999/xlink" x="0px" y="0px"
	 viewBox="0 0 512 512" style="enable-background:new 0 0 512 512;" xml:space="preserve">
<g>
	<g>
		<path d="M0,49.11v413.78h512V49.11H0z M411.167,447.216H100.833v-22.41h310.335V447.216z M411.167,409.133H100.833v-22.412h41.363
			v-15.674h-41.363v-22.411h310.335V409.133z M411.167,332.963H100.833v-22.41h310.335V332.963z M411.167,294.88H100.833v-22.411
			h310.335V294.88z M411.167,218.711H115.029v15.673h296.139v22.41H100.833V196.3h310.335V218.711z M496.327,447.216h-69.486
			v-266.59H85.159v266.59H15.673V117.029h480.653V447.216z M496.327,101.355H15.673V64.784h480.653V101.355z"/>
	</g>
</g>
<g>
	<g>
		<rect x="160.486" y="371.043" width="15.673" height="15.673"/>
	</g>
</g>
<g>
	<g>
		<rect x="194.968" y="371.043" width="201.143" height="15.673"/>
	</g>
</g>
<g>
	<g>
		<rect x="259.229" y="75.233" width="15.673" height="15.673"/>
	</g>
</g>
<g>
	<g>
		<rect x="293.71" y="75.233" width="188.082" height="15.673"/>
	</g>
</g>
<g>
</g>
<g>
</g>
<g>
</g>
<g>
</g>
<g>
</g>
<g>
</g>
<g>
</g>
<g>
</g>
<g>
</g>
<g>
</g>
<g>
</g>
<g>
</g>
<g>
</g>
<g>
</g>
<g>
</g>
</svg>
