<?xml version="1.0" encoding="iso-8859-1"?>
<!-- Generator: Adobe Illustrator 19.0.0, SVG Export Plug-In . SVG Version: 6.00 Build 0)  -->
<svg version="1.1" id="Layer_1" xmlns="http://www.w3.org/2000/svg" xmlns:xlink="http://www.w3.org/1999/xlink" x="0px" y="0px"
	 viewBox="0 0 512 512" style="enable-background:new 0 0 512 512;" xml:space="preserve">
<g>
	<g>
		<path d="M0,49.11v413.78h512V49.11H0z M165.443,374.921H30.663v15.673h134.78v56.622H15.673V64.784h149.769V374.921z
			 M330.885,447.216H181.116v-56.622h149.768V447.216z M496.327,447.216H346.558v-56.622h149.768V447.216z M496.327,374.921H346.558
			v-32.333h-15.673v32.333H181.116V64.784h149.768v209.461h15.673V64.784h149.768V374.921z"/>
	</g>
</g>
<g>
	<g>
		<rect x="330.888" y="292.509" width="15.673" height="15.651"/>
	</g>
</g>
<g>
	<g>
		<rect x="16.175" y="98.279" transform="matrix(0.5736 -0.8191 0.8191 0.5736 -65.5453 86.3115)" width="67.916" height="15.673"/>
	</g>
</g>
<g>
	<g>
		
			<rect x="31.254" y="126.061" transform="matrix(0.5736 -0.8191 0.8191 0.5736 -81.8733 110.5088)" width="67.916" height="15.673"/>
	</g>
</g>
<g>
	<g>
		<rect x="181.622" y="98.265" transform="matrix(0.5736 -0.8191 0.8191 0.5736 5.0091 221.8269)" width="67.916" height="15.673"/>
	</g>
</g>
<g>
	<g>
		
			<rect x="196.678" y="126.075" transform="matrix(0.5736 -0.8192 0.8192 0.5736 -11.3437 246.0337)" width="67.922" height="15.674"/>
	</g>
</g>
<g>
	<g>
		
			<rect x="347.043" y="98.284" transform="matrix(0.5736 -0.8191 0.8191 0.5736 75.5264 357.3355)" width="67.916" height="15.673"/>
	</g>
</g>
<g>
	<g>
		
			<rect x="362.102" y="126.085" transform="matrix(0.5736 -0.8192 0.8192 0.5736 59.1904 381.5461)" width="67.922" height="15.674"/>
	</g>
</g>
<g>
</g>
<g>
</g>
<g>
</g>
<g>
</g>
<g>
</g>
<g>
</g>
<g>
</g>
<g>
</g>
<g>
</g>
<g>
</g>
<g>
</g>
<g>
</g>
<g>
</g>
<g>
</g>
<g>
</g>
</svg>
