<?xml version="1.0" encoding="iso-8859-1"?>
<!-- Generator: Adobe Illustrator 19.0.0, SVG Export Plug-In . SVG Version: 6.00 Build 0)  -->
<svg version="1.1" id="Layer_1" xmlns="http://www.w3.org/2000/svg" xmlns:xlink="http://www.w3.org/1999/xlink" x="0px" y="0px"
	 viewBox="0 0 512 512" style="enable-background:new 0 0 512 512;" xml:space="preserve">
<g>
	<g>
		<rect x="398.106" y="372.245" width="16.718" height="15.674"/>
	</g>
</g>
<g>
	<g>
		<path d="M437.019,199.062C388.668,150.71,324.38,124.082,256,124.082S123.332,150.71,74.981,199.062
			C26.629,247.415,0,311.701,0,380.082v7.837h380.343v-15.674h-63.739V254.607H195.396v117.638H44.046
			C48.184,258.903,141.665,167.967,256,167.967s207.816,90.935,211.954,204.278h-34.322v15.674H512v-7.837
			C512,311.701,485.372,247.414,437.019,199.062z M211.069,270.281h89.861v13.736h-89.861V270.281z M211.069,299.689h89.861v13.736
			h-89.861V299.689z M211.069,358.509h75.233v-15.673h-75.233v-13.736h89.861v43.146h-89.861V358.509z M483.64,372.245
			c-1.946-57.905-25.399-112.063-66.569-153.233C374.047,175.988,316.844,152.294,256,152.294s-118.047,23.694-161.07,66.718
			c-41.171,41.17-64.625,95.328-66.569,153.233H15.798c1.948-61.258,26.724-118.559,70.265-162.1
			c45.391-45.391,105.744-70.39,169.937-70.39s124.545,24.998,169.937,70.39c43.541,43.541,68.318,100.842,70.265,162.1H483.64z"/>
	</g>
</g>
<g>
	<g>
		<path d="M86.204,277.595v45.976h87.249v-45.976H86.204z M157.78,307.897h-55.902v-14.629h55.902V307.897z"/>
	</g>
</g>
<g>
	<g>
		<path d="M338.547,277.595v45.976h87.249v-45.976H338.547z M410.122,307.897H354.22v-14.629h55.902V307.897z"/>
	</g>
</g>
<g>
</g>
<g>
</g>
<g>
</g>
<g>
</g>
<g>
</g>
<g>
</g>
<g>
</g>
<g>
</g>
<g>
</g>
<g>
</g>
<g>
</g>
<g>
</g>
<g>
</g>
<g>
</g>
<g>
</g>
</svg>
