<?xml version="1.0" encoding="iso-8859-1"?>
<!-- Generator: Adobe Illustrator 19.0.0, SVG Export Plug-In . SVG Version: 6.00 Build 0)  -->
<svg version="1.1" id="Layer_1" xmlns="http://www.w3.org/2000/svg" xmlns:xlink="http://www.w3.org/1999/xlink" x="0px" y="0px"
	 viewBox="0 0 512 512" style="enable-background:new 0 0 512 512;" xml:space="preserve">
<g>
	<g>
		<path d="M416.521,239.342l17.264,12.536l26.461-36.443L256,67.126L51.754,215.434l26.461,36.443l17.264-12.537v189.857H68.441
			v15.673h375.118v-15.673h-27.038V239.342z M81.689,229.986l-8.044-11.078L256,86.495l182.355,132.414l-8.043,11.078L256,103.412
			L81.689,229.986z M400.848,429.198H111.153V227.961L256,122.781l144.848,105.179V429.198z"/>
	</g>
</g>
<g>
	<g>
		<rect y="429.201" width="15.673" height="15.673"/>
	</g>
</g>
<g>
	<g>
		<rect x="33.959" y="429.201" width="15.674" height="15.673"/>
	</g>
</g>
<g>
	<g>
		<rect x="461.845" y="429.201" width="15.673" height="15.673"/>
	</g>
</g>
<g>
	<g>
		<rect x="496.327" y="429.201" width="15.673" height="15.673"/>
	</g>
</g>
<g>
	<g>
		
			<rect x="276.087" y="306.971" transform="matrix(0.4226 -0.9063 0.9063 0.4226 -121.3789 439.0909)" width="15.673" height="15.673"/>
	</g>
</g>
<g>
	<g>
		<path d="M375.814,349.011l-65.366-30.481l-6.625,14.204l58.617,27.333l4.202,16.634l-15.443,7.473l-3.003-1.4l3.971-8.514
			l-25.592-11.934l-11.774,4.875l-13.048-6.084l-6.113-16.798l-16.799,6.115l-14.234-6.637c-1.033-6.867-5.411-12.89-11.979-15.951
			c-6.568-3.063-13.996-2.545-19.92,1.075l-18.425-8.591l-3.809,3.1c-12.217,9.945-28.666,11.987-42.927,5.338
			c-20.34-9.484-29.17-33.748-19.687-54.086c9.481-20.337,33.742-29.166,54.084-19.684c14.263,6.652,23.27,20.568,23.503,36.315
			l0.072,4.91l31.423,14.653l6.625-14.204l-22.751-10.609c-2.063-19.489-14.319-36.909-32.248-45.269
			c-13.648-6.366-28.958-7.032-43.105-1.883c-14.15,5.15-25.447,15.502-31.81,29.15c-13.136,28.171-0.905,61.777,27.267,74.914
			c17.926,8.36,39.15,6.555,55.407-4.394l19.42,9.055l3.881-4.297c1.62-1.792,4.181-2.31,6.373-1.286
			c2.192,1.022,3.441,3.315,3.109,5.709l-0.796,5.733l29.783,13.889l8.17-2.974l2.974,8.169l25.181,11.742l11.775-4.875l5.139,2.397
			l-3.971,8.514l23.956,11.17l33.641-16.281L375.814,349.011z"/>
	</g>
</g>
<g>
</g>
<g>
</g>
<g>
</g>
<g>
</g>
<g>
</g>
<g>
</g>
<g>
</g>
<g>
</g>
<g>
</g>
<g>
</g>
<g>
</g>
<g>
</g>
<g>
</g>
<g>
</g>
<g>
</g>
</svg>
