<?xml version="1.0" encoding="iso-8859-1"?>
<!-- Generator: Adobe Illustrator 19.0.0, SVG Export Plug-In . SVG Version: 6.00 Build 0)  -->
<svg version="1.1" id="Layer_1" xmlns="http://www.w3.org/2000/svg" xmlns:xlink="http://www.w3.org/1999/xlink" x="0px" y="0px"
	 viewBox="0 0 512 512" style="enable-background:new 0 0 512 512;" xml:space="preserve">
<g>
	<g>
		<path d="M416.521,239.342l17.264,12.535l26.461-36.442L256,67.125L51.754,215.435l26.461,36.442l17.264-12.536v189.858H68.441
			v15.673h375.118v-15.673h-27.038V239.342z M81.689,229.985l-8.044-11.076L256,86.496l182.355,132.414l-8.043,11.077L256,103.413
			L81.689,229.985z M400.848,429.199H111.153V227.96L256,122.782l144.848,105.179V429.199z"/>
	</g>
</g>
<g>
	<g>
		<rect y="429.201" width="15.673" height="15.673"/>
	</g>
</g>
<g>
	<g>
		<rect x="33.959" y="429.201" width="15.674" height="15.673"/>
	</g>
</g>
<g>
	<g>
		<rect x="461.845" y="429.201" width="15.673" height="15.673"/>
	</g>
</g>
<g>
	<g>
		<rect x="496.327" y="429.201" width="15.673" height="15.673"/>
	</g>
</g>
<g>
	<g>
		<path d="M321.004,237.227c-17.72-17.722-46.559-17.721-64.281,0c-17.721,17.721-17.721,46.558,0.001,64.28
			c8.861,8.861,20.501,13.291,32.14,13.291c11.64,0,23.279-4.43,32.14-13.291h0.001
			C338.727,283.785,338.727,254.949,321.004,237.227z M309.922,290.424c-11.614,11.611-30.507,11.609-42.116,0
			c-11.61-11.611-11.61-30.504,0-42.115c5.808-5.807,13.431-8.708,21.058-8.708c7.626,0,15.253,2.904,21.057,8.708
			C321.532,259.92,321.532,278.813,309.922,290.424z"/>
	</g>
</g>
<g>
	<g>
		<path d="M340.126,216.596c-13.544-13.163-31.503-20.512-50.571-20.695c-19.018-0.186-37.166,6.826-50.949,19.737
			c-24.39,22.848-30.187,58.938-14.861,87.98l-67.788,67.788c-4.122,4.122-6.393,9.604-6.392,15.434
			c0,5.831,2.271,11.311,6.393,15.434c4.255,4.255,9.845,6.382,15.433,6.382c5.589,0,11.178-2.127,15.434-6.382l67.792-67.792
			c28.125,14.773,63.48,9.698,86.269-13.092c14.036-14.036,21.688-32.698,21.546-52.549
			C362.291,248.995,354.37,230.441,340.126,216.596z M329.803,310.309c-19.128,19.128-49.499,22.402-72.221,7.778l-5.313-3.42
			l-76.526,76.525c-2.399,2.399-6.304,2.398-8.701,0c-2.399-2.399-2.399-6.303,0-8.702l76.525-76.525l-3.42-5.314
			c-15.119-23.491-11.259-54.434,9.174-73.575c10.689-10.012,24.699-15.505,39.511-15.505c0.191,0,0.382,0.001,0.574,0.003
			c15.023,0.144,29.155,5.919,39.797,16.262c11.211,10.897,17.447,25.5,17.558,41.119
			C346.872,284.576,340.85,299.262,329.803,310.309z"/>
	</g>
</g>
<g>
</g>
<g>
</g>
<g>
</g>
<g>
</g>
<g>
</g>
<g>
</g>
<g>
</g>
<g>
</g>
<g>
</g>
<g>
</g>
<g>
</g>
<g>
</g>
<g>
</g>
<g>
</g>
<g>
</g>
</svg>
