<?xml version="1.0" encoding="iso-8859-1"?>
<!-- Generator: Adobe Illustrator 19.0.0, SVG Export Plug-In . SVG Version: 6.00 Build 0)  -->
<svg version="1.1" id="Layer_1" xmlns="http://www.w3.org/2000/svg" xmlns:xlink="http://www.w3.org/1999/xlink" x="0px" y="0px"
	 viewBox="0 0 512 512" style="enable-background:new 0 0 512 512;" xml:space="preserve">
<g>
	<g>
		<path d="M416.521,239.342l17.264,12.536l26.461-36.442L256,67.125L51.754,215.436l26.461,36.442l17.264-12.537v189.858H68.441
			v15.673h375.118v-15.673h-27.038V239.342z M81.689,229.986l-8.044-11.077L256,86.495l182.355,132.415l-8.043,11.077L256,103.413
			L81.689,229.986z M400.848,429.199H111.153V227.96L256,122.782l144.848,105.179V429.199z"/>
	</g>
</g>
<g>
	<g>
		<rect y="429.201" width="15.673" height="15.673"/>
	</g>
</g>
<g>
	<g>
		<rect x="33.959" y="429.201" width="15.674" height="15.673"/>
	</g>
</g>
<g>
	<g>
		<rect x="461.845" y="429.201" width="15.673" height="15.673"/>
	</g>
</g>
<g>
	<g>
		<rect x="496.327" y="429.201" width="15.673" height="15.673"/>
	</g>
</g>
<g>
	<g>
		<path d="M338.012,240.104c-22.12-22.12-58.111-22.118-80.231,0l-1.774,1.775l-1.775-1.775
			c-10.71-10.71-24.958-16.609-40.12-16.609c-15.163,0-29.411,5.898-40.121,16.609c-22.122,22.123-22.122,58.118,0,80.241
			l82.016,82.016l82.005-82.016c10.716-10.715,16.618-24.964,16.618-40.12S348.727,250.819,338.012,240.104z M326.928,309.262
			l-70.922,70.932l-70.933-70.932c-16.011-16.011-16.011-42.063,0-58.075c7.749-7.75,18.062-12.017,29.038-12.017
			c10.975,0,21.287,4.268,29.037,12.017l12.859,12.859l12.859-12.859c16.009-16.009,42.057-16.008,58.064,0h0.001
			c7.755,7.755,12.027,18.068,12.027,29.038C338.956,291.193,334.684,301.505,326.928,309.262z"/>
	</g>
</g>
<g>
</g>
<g>
</g>
<g>
</g>
<g>
</g>
<g>
</g>
<g>
</g>
<g>
</g>
<g>
</g>
<g>
</g>
<g>
</g>
<g>
</g>
<g>
</g>
<g>
</g>
<g>
</g>
<g>
</g>
</svg>
