<?xml version="1.0" encoding="iso-8859-1"?>
<!-- Generator: Adobe Illustrator 19.0.0, SVG Export Plug-In . SVG Version: 6.00 Build 0)  -->
<svg version="1.1" id="Layer_1" xmlns="http://www.w3.org/2000/svg" xmlns:xlink="http://www.w3.org/1999/xlink" x="0px" y="0px"
	 viewBox="0 0 512 512" style="enable-background:new 0 0 512 512;" xml:space="preserve">
<g>
	<g>
		<path d="M348.052,69.098l-6.957,13.998c27.861,13.847,52.249,34.531,70.527,59.818l12.667-9.157
			C404.535,106.427,378.171,84.067,348.052,69.098z"/>
	</g>
</g>
<g>
	<g>
		<path d="M311.232,54.995l-4.172,15.064c5.39,1.492,10.778,3.245,16.017,5.207l5.485-14.637
			C322.894,58.505,317.063,56.61,311.232,54.995z"/>
	</g>
</g>
<g>
	<g>
		<path d="M255.575,47.464c-112.474,0-204.375,89.72-207.923,201.348H0l56.274,73.685l56.274-73.685H63.293
			C66.835,145.805,151.72,63.095,255.575,63.095c10.551,0,21.135,0.861,31.461,2.558l2.536-15.425
			C278.411,48.393,266.972,47.464,255.575,47.464z M80.942,264.442l-24.668,32.301l-24.668-32.301H80.942z"/>
	</g>
</g>
<g>
	<g>
		<g>
			<polygon points="512,263.189 511.999,263.189 512,263.19 			"/>
			<path d="M399.452,263.19h49.254c-3.541,103.006-88.427,185.717-192.282,185.717c-30.968,0-61.742-7.528-88.993-21.771
				c-26.384-13.79-49.571-33.862-67.055-58.049l-12.667,9.157c18.896,26.14,43.961,47.837,72.483,62.744
				c29.476,15.406,62.753,23.549,96.233,23.549c112.474,0,204.375-89.72,207.923-201.348h47.65l-56.273-73.684L399.452,263.19z
				 M431.058,247.559l24.668-32.3l24.668,32.3H431.058z"/>
		</g>
	</g>
</g>
<g>
	<g>
		<path d="M213.796,236.227v84.408h84.408v-84.408H213.796z M282.573,305.004h-53.146v-53.146h53.146V305.004z"/>
	</g>
</g>
<g>
	<g>
		<rect x="280.494" y="364.089" width="15.631" height="15.631"/>
	</g>
</g>
<g>
	<g>
		<polygon points="256,143.157 177.022,194.258 177.022,146.922 186.494,146.922 186.494,170.056 202.125,170.056 202.125,131.291 
			161.391,131.291 161.391,204.372 120.141,231.062 128.632,244.186 161.391,222.99 161.391,379.72 262.252,379.72 262.252,364.089 
			177.022,364.089 177.022,212.876 256,161.774 334.978,212.876 334.978,364.089 314.877,364.089 314.877,379.72 350.609,379.72 
			350.609,222.99 383.368,244.186 391.859,231.062 		"/>
	</g>
</g>
<g>
</g>
<g>
</g>
<g>
</g>
<g>
</g>
<g>
</g>
<g>
</g>
<g>
</g>
<g>
</g>
<g>
</g>
<g>
</g>
<g>
</g>
<g>
</g>
<g>
</g>
<g>
</g>
<g>
</g>
</svg>
