<?xml version="1.0" encoding="iso-8859-1"?>
<!-- Generator: Adobe Illustrator 19.0.0, SVG Export Plug-In . SVG Version: 6.00 Build 0)  -->
<svg version="1.1" id="Layer_1" xmlns="http://www.w3.org/2000/svg" xmlns:xlink="http://www.w3.org/1999/xlink" x="0px" y="0px"
	 viewBox="0 0 512 512" style="enable-background:new 0 0 512 512;" xml:space="preserve">
<g>
	<g>
		<path d="M416.521,239.342l17.263,12.536l26.462-36.443L256,67.126L51.754,215.434l26.462,36.443l17.264-12.536v189.856H68.441
			v15.673h375.118v-15.673h-27.038V239.342z M81.689,229.986l-8.044-11.078L256,86.495l182.355,132.414l-8.044,11.078L256,103.412
			L81.689,229.986z M248.163,344.29c-13.933-12.679-34.974-35.88-37.5-62.094l37.5,37.5V344.29z M248.163,297.53l-35.656-35.656
			c1.75-6.427,4.479-12.596,7.772-18.387l27.884,27.883V297.53z M248.163,249.203l-18.991-18.99
			c6.352-8.241,13.268-15.221,18.991-20.429V249.203z M400.848,429.198H263.837v-64.372c12.259-9.459,53.444-44.468,53.444-87.788
			c0-49.81-54.459-88.638-56.777-90.267L256,183.607l-4.505,3.164c-2.319,1.629-56.777,40.456-56.777,90.267
			c0,43.32,41.186,78.328,53.444,87.788v64.372H111.152V227.961L256,122.781l144.848,105.179V429.198z M291.721,243.487
			c3.294,5.791,6.022,11.96,7.772,18.387l-35.656,35.656v-26.16L291.721,243.487z M263.837,249.203v-39.419
			c5.723,5.208,12.638,12.188,18.99,20.429L263.837,249.203z M301.336,282.197c-2.527,26.214-23.569,49.416-37.499,62.094v-24.595
			L301.336,282.197z"/>
	</g>
</g>
<g>
	<g>
		<rect y="429.201" width="15.673" height="15.673"/>
	</g>
</g>
<g>
	<g>
		<rect x="33.959" y="429.201" width="15.674" height="15.673"/>
	</g>
</g>
<g>
	<g>
		<rect x="461.845" y="429.201" width="15.673" height="15.673"/>
	</g>
</g>
<g>
	<g>
		<rect x="496.327" y="429.201" width="15.673" height="15.673"/>
	</g>
</g>
<g>
</g>
<g>
</g>
<g>
</g>
<g>
</g>
<g>
</g>
<g>
</g>
<g>
</g>
<g>
</g>
<g>
</g>
<g>
</g>
<g>
</g>
<g>
</g>
<g>
</g>
<g>
</g>
<g>
</g>
</svg>
