<?xml version="1.0" encoding="iso-8859-1"?>
<!-- Generator: Adobe Illustrator 19.0.0, SVG Export Plug-In . SVG Version: 6.00 Build 0)  -->
<svg version="1.1" id="Layer_1" xmlns="http://www.w3.org/2000/svg" xmlns:xlink="http://www.w3.org/1999/xlink" x="0px" y="0px"
	 viewBox="0 0 512 512" style="enable-background:new 0 0 512 512;" xml:space="preserve">
<g>
	<g>
		<path d="M256.001,0c-55.294,0-100.28,44.985-100.28,100.279c0,19.198,5.445,37.859,15.746,53.962
			c9.13,14.273,21.669,25.968,36.459,34.057v39.68l5.51,1.694c7.41,2.277,12.389,9.021,12.389,16.781s-4.979,14.501-12.389,16.78
			l-5.51,1.694v54.397l14.667,14.667l-14.667,14.668v46.846l17.899,16.407v21.068h-17.899v39.849L256,512l48.076-39.172V188.299
			c14.791-8.089,27.329-19.784,36.459-34.057c10.301-16.104,15.746-34.764,15.746-53.962C356.28,44.985,311.295,0,256.001,0z
			 M292.871,176.524l-4.399,2.132v286.757l-8.024,6.538V370.86h-15.604v113.806l-8.842,7.205l-32.47-26.457v-16.831h17.899v-43.538
			l-17.899-16.407v-33.517l21.13-21.131l-21.13-21.129v-36.952c10.903-5.607,17.899-16.818,17.899-29.454
			c0-12.637-6.995-23.849-17.899-29.457v-38.341l-4.4-2.132c-29.04-14.072-47.805-44-47.805-76.245
			c0-46.69,37.985-84.675,84.676-84.675c46.69,0,84.675,37.986,84.675,84.675C340.676,132.526,321.912,162.452,292.871,176.524z"/>
	</g>
</g>
<g>
	<g>
		<rect x="264.846" y="336.531" width="15.604" height="15.604"/>
	</g>
</g>
<g>
	<g>
		<rect x="264.846" y="184.13" width="15.604" height="134.196"/>
	</g>
</g>
<g>
	<g>
		<path d="M256.001,29.648c-15.775,0-28.608,12.834-28.608,28.608c0,15.774,12.833,28.608,28.608,28.608
			c15.775,0,28.608-12.834,28.608-28.608C284.608,42.482,271.775,29.648,256.001,29.648z M256.001,71.259
			c-7.171,0-13.004-5.833-13.004-13.004s5.833-13.003,13.004-13.003c7.171,0,13.003,5.833,13.003,13.003
			S263.171,71.259,256.001,71.259z"/>
	</g>
</g>
<g>
</g>
<g>
</g>
<g>
</g>
<g>
</g>
<g>
</g>
<g>
</g>
<g>
</g>
<g>
</g>
<g>
</g>
<g>
</g>
<g>
</g>
<g>
</g>
<g>
</g>
<g>
</g>
<g>
</g>
</svg>
