<?xml version="1.0" encoding="iso-8859-1"?>
<!-- Generator: Adobe Illustrator 19.0.0, SVG Export Plug-In . SVG Version: 6.00 Build 0)  -->
<svg version="1.1" id="Layer_1" xmlns="http://www.w3.org/2000/svg" xmlns:xlink="http://www.w3.org/1999/xlink" x="0px" y="0px"
	 viewBox="0 0 512 512" style="enable-background:new 0 0 512 512;" xml:space="preserve">
<g>
	<g>
		<path d="M368.849,122.06V0h-43.886v47.543H187.037V0h-43.886v512h43.886v-47.543h137.927V512h43.886V174.827h-15.673v321.499
			h-12.539V15.673h12.539V122.06H368.849z M171.363,270.434v9.076v216.816h-12.539V15.673h12.539V270.434z M324.963,448.784H187.037
			V433.11h137.927V448.784z M324.963,417.437H187.037v-45.453h137.927V417.437z M324.963,324.963h-86.727v15.673h86.727v15.673
			H187.037v-76.8h137.927V324.963z M324.963,263.837H187.037v-15.673h137.927V263.837z M324.963,232.49H187.037v-45.453h137.927
			V232.49z M324.963,171.363H187.037V155.69h137.927V171.363z M324.963,140.016H187.037V94.563h137.927V140.016z M324.963,78.89
			H187.037V63.216h137.927V78.89z"/>
	</g>
</g>
<g>
	<g>
		<rect x="203.755" y="324.963" width="15.673" height="15.673"/>
	</g>
</g>
<g>
	<g>
		<rect x="353.176" y="140.34" width="15.673" height="15.673"/>
	</g>
</g>
<g>
</g>
<g>
</g>
<g>
</g>
<g>
</g>
<g>
</g>
<g>
</g>
<g>
</g>
<g>
</g>
<g>
</g>
<g>
</g>
<g>
</g>
<g>
</g>
<g>
</g>
<g>
</g>
<g>
</g>
</svg>
