<?xml version="1.0" encoding="iso-8859-1"?>
<!-- Generator: Adobe Illustrator 19.0.0, SVG Export Plug-In . SVG Version: 6.00 Build 0)  -->
<svg version="1.1" id="Layer_1" xmlns="http://www.w3.org/2000/svg" xmlns:xlink="http://www.w3.org/1999/xlink" x="0px" y="0px"
	 viewBox="0 0 512 512" style="enable-background:new 0 0 512 512;" xml:space="preserve">
<g>
	<g>
		<rect x="248.163" y="427.75" width="15.673" height="49.713"/>
	</g>
</g>
<g>
	<g>
		<rect x="248.163" y="496.306" width="15.673" height="15.694"/>
	</g>
</g>
<g>
	<g>
		<path d="M322.381,178.977h-27.67v-45.526h-30.875V0h-15.673v133.451H217.29v45.526h-27.671l-89.207,162.195h92.786
			c3.874,31.219,30.552,55.468,62.804,55.468c32.251,0,58.928-24.249,62.803-55.468h92.785L322.381,178.977z M232.963,149.125
			h46.075v29.853h-46.075V149.125z M256,380.968c-23.595,0-43.226-17.248-46.977-39.795h93.952
			C299.226,363.72,279.595,380.968,256,380.968z M126.92,325.499l71.966-130.848h114.228l71.966,130.848H126.92z"/>
	</g>
</g>
<g>
	<g>
		
			<rect x="319.486" y="398.278" transform="matrix(0.7071 -0.7071 0.7071 0.7071 -203.33 355.3853)" width="15.673" height="49.712"/>
	</g>
</g>
<g>
	<g>
		
			<rect x="355.938" y="451.725" transform="matrix(0.7071 -0.7071 0.7071 0.7071 -218.4233 391.8344)" width="15.673" height="15.705"/>
	</g>
</g>
<g>
	<g>
		
			<rect x="159.799" y="415.283" transform="matrix(0.7071 -0.7071 0.7071 0.7071 -245.1063 254.4998)" width="49.712" height="15.673"/>
	</g>
</g>
<g>
	<g>
		
			<rect x="140.392" y="451.756" transform="matrix(0.7071 -0.7071 0.7071 0.7071 -281.5627 239.4327)" width="15.694" height="15.672"/>
	</g>
</g>
<g>
</g>
<g>
</g>
<g>
</g>
<g>
</g>
<g>
</g>
<g>
</g>
<g>
</g>
<g>
</g>
<g>
</g>
<g>
</g>
<g>
</g>
<g>
</g>
<g>
</g>
<g>
</g>
<g>
</g>
</svg>
