<?xml version="1.0" encoding="iso-8859-1"?>
<!-- Generator: Adobe Illustrator 19.0.0, SVG Export Plug-In . SVG Version: 6.00 Build 0)  -->
<svg version="1.1" id="Layer_1" xmlns="http://www.w3.org/2000/svg" xmlns:xlink="http://www.w3.org/1999/xlink" x="0px" y="0px"
	 viewBox="0 0 512 512" style="enable-background:new 0 0 512 512;" xml:space="preserve">
<g>
	<g>
		<path d="M384.534,121.664c1.861-3.827,2.909-8.121,2.909-12.655c0-16.009-13.025-29.034-29.034-29.034
			c-16.009,0-29.034,13.025-29.034,29.034c0,4.981,1.262,9.672,3.481,13.772l-72.586,72.586c-4.101-2.219-8.792-3.482-13.774-3.482
			c-4.981,0-9.672,1.262-13.772,3.481l-21.909-21.909c2.219-4.101,3.482-8.792,3.482-13.773c0-16.009-13.024-29.034-29.034-29.034
			s-29.034,13.025-29.034,29.034c0,4.534,1.046,8.828,2.909,12.656l-70.27,70.27l11.197,11.2l69.634-69.634
			c4.502,2.871,9.84,4.543,15.563,4.543c5.284,0,10.239-1.426,14.513-3.903l21.593,21.591c-2.477,4.273-3.903,9.227-3.903,14.513
			c0,16.009,13.024,29.034,29.034,29.034c16.009,0,29.034-13.025,29.034-29.034c0-5.284-1.426-10.239-3.903-14.512l72.269-72.269
			c4.273,2.478,9.227,3.903,14.511,3.903c5.723,0,11.061-1.671,15.562-4.542l37.961,37.961l11.199-11.198L384.534,121.664z
			 M185.264,172.882c-7.277,0-13.197-5.92-13.197-13.197s5.92-13.197,13.197-13.197s13.197,5.92,13.197,13.197
			S192.541,172.882,185.264,172.882z M246.498,234.116c-7.277,0-13.197-5.92-13.197-13.197s5.92-13.197,13.197-13.197
			s13.197,5.92,13.197,13.197S253.775,234.116,246.498,234.116z M358.409,122.205c-7.277,0-13.197-5.92-13.197-13.197
			s5.92-13.197,13.197-13.197s13.197,5.92,13.197,13.197S365.687,122.205,358.409,122.205z"/>
	</g>
</g>
<g>
	<g>
		<path d="M285.034,41.175V0h-57.011v41.175H64.378v273.443h17.42v24.81h91.075L87.068,504.703L101.123,512l56.98-109.753h89.979
			v74.959h15.837V339.429h58.419l24.391,46.982h-32.661v15.836h40.883L411.931,512l14.055-7.297L340.18,339.429h90.021v-24.81h17.42
			V41.175H285.034z M243.859,15.836h25.338v25.338h-25.338V15.836z M248.082,386.41h-81.756l24.391-46.982h57.365V386.41z
			 M414.365,323.592H97.635v-8.974h316.73V323.592z M431.785,298.782H80.215V57.011h351.57V298.782z"/>
	</g>
</g>
<g>
	<g>
		<rect x="279.757" y="386.41" width="15.836" height="15.836"/>
	</g>
</g>
<g>
</g>
<g>
</g>
<g>
</g>
<g>
</g>
<g>
</g>
<g>
</g>
<g>
</g>
<g>
</g>
<g>
</g>
<g>
</g>
<g>
</g>
<g>
</g>
<g>
</g>
<g>
</g>
<g>
</g>
</svg>
