<?xml version="1.0" encoding="iso-8859-1"?>
<!-- Generator: Adobe Illustrator 19.0.0, SVG Export Plug-In . SVG Version: 6.00 Build 0)  -->
<svg version="1.1" id="Layer_1" xmlns="http://www.w3.org/2000/svg" xmlns:xlink="http://www.w3.org/1999/xlink" x="0px" y="0px"
	 viewBox="0 0 512 512" style="enable-background:new 0 0 512 512;" xml:space="preserve">
<g>
	<g>
		<rect x="455.667" y="199.805" width="15.61" height="15.61"/>
	</g>
</g>
<g>
	<g>
		<path d="M274.068,87.415v98.862h165.463V87.415h-74.927V58.276H177.566V0h-56.993v15.61h41.384v119.154h15.61V73.886h57.999
			v125.919H56.333V73.886h91.296v-15.61H40.723v157.138h121.233v114.211h15.61V215.415h16.65V496.39h-16.65V382.179h-15.61V512
			h47.87V215.415H436.93v-15.61H251.174V73.886h97.821v13.529H274.068z M423.922,170.667H289.678v-62.182l67.122,37.29l67.122-37.29
			V170.667z M401.606,103.024L356.8,127.917l-44.805-24.892H401.606z"/>
	</g>
</g>
<g>
	<g>
		<rect x="161.954" y="347.837" width="15.61" height="15.61"/>
	</g>
</g>
<g>
</g>
<g>
</g>
<g>
</g>
<g>
</g>
<g>
</g>
<g>
</g>
<g>
</g>
<g>
</g>
<g>
</g>
<g>
</g>
<g>
</g>
<g>
</g>
<g>
</g>
<g>
</g>
<g>
</g>
</svg>
