<?xml version="1.0" encoding="iso-8859-1"?>
<!-- Generator: Adobe Illustrator 19.0.0, SVG Export Plug-In . SVG Version: 6.00 Build 0)  -->
<svg version="1.1" id="Layer_1" xmlns="http://www.w3.org/2000/svg" xmlns:xlink="http://www.w3.org/1999/xlink" x="0px" y="0px"
	 viewBox="0 0 512 512" style="enable-background:new 0 0 512 512;" xml:space="preserve">
<g>
	<g>
		<rect x="296.124" y="391.116" width="15.673" height="15.674"/>
	</g>
</g>
<g>
	<g>
		<path d="M444.082,454.008V149.943h30.117L433.84,42.318H78.16L37.801,149.943h30.117v304.065H33.959v15.673h443.559v-15.673
			H444.082z M60.418,134.269l28.604-76.278h333.955l28.604,76.278H345.566L256,70.145l-89.565,64.124H60.418z M372.407,172.763
			l-9.124,12.744L256,108.699l-107.283,76.808l-9.124-12.744L256,89.422L372.407,172.763z M428.408,454.008H311.795v-28.414h-15.673
			v28.414h-80.243V336.572h80.243v36.255h15.673v-51.928h-111.59v133.11H83.592V149.943h60.951l-26.817,19.2l27.372,38.232
			L256,127.975l110.903,79.4l27.372-38.232l-26.818-19.2h60.951V454.008z"/>
	</g>
</g>
<g>
	<g>
		<rect y="454.008" width="15.673" height="15.673"/>
	</g>
</g>
<g>
	<g>
		<rect x="496.327" y="454.008" width="15.673" height="15.673"/>
	</g>
</g>
<g>
	<g>
		<path d="M256,162.482c-23.046,0-41.796,18.75-41.796,41.796c0,23.046,18.75,41.796,41.796,41.796s41.796-18.75,41.796-41.796
			C297.796,181.231,279.046,162.482,256,162.482z M256,230.4c-14.404,0-26.122-11.719-26.122-26.122
			c0-14.404,11.719-26.122,26.122-26.122s26.122,11.719,26.122,26.122C282.122,218.681,270.404,230.4,256,230.4z"/>
	</g>
</g>
<g>
	<g>
		<polygon points="334.89,223.086 334.89,300.931 350.563,300.931 350.563,238.759 391.314,238.759 391.314,300.931 
			406.988,300.931 406.988,223.086 		"/>
	</g>
</g>
<g>
	<g>
		<polygon points="105.012,223.086 105.012,300.931 120.686,300.931 120.686,238.759 161.437,238.759 161.437,300.931 
			177.11,300.931 177.11,223.086 		"/>
	</g>
</g>
<g>
	<g>
		<polygon points="334.89,326.531 334.89,404.375 350.563,404.375 350.563,342.204 391.314,342.204 391.314,404.375 
			406.988,404.375 406.988,326.531 		"/>
	</g>
</g>
<g>
	<g>
		<polygon points="105.012,326.531 105.012,404.375 120.686,404.375 120.686,342.204 161.437,342.204 161.437,404.375 
			177.11,404.375 177.11,326.531 		"/>
	</g>
</g>
<g>
</g>
<g>
</g>
<g>
</g>
<g>
</g>
<g>
</g>
<g>
</g>
<g>
</g>
<g>
</g>
<g>
</g>
<g>
</g>
<g>
</g>
<g>
</g>
<g>
</g>
<g>
</g>
<g>
</g>
</svg>
