<?xml version="1.0" encoding="iso-8859-1"?>
<!-- Generator: Adobe Illustrator 19.0.0, SVG Export Plug-In . SVG Version: 6.00 Build 0)  -->
<svg version="1.1" id="Layer_1" xmlns="http://www.w3.org/2000/svg" xmlns:xlink="http://www.w3.org/1999/xlink" x="0px" y="0px"
	 viewBox="0 0 512 512" style="enable-background:new 0 0 512 512;" xml:space="preserve">
<g>
	<g>
		<path d="M105.443,229.246c-14.753,0-26.754,12.002-26.754,26.754c0,14.751,12.002,26.754,26.754,26.754
			s26.754-12.003,26.754-26.754C132.197,241.247,120.195,229.246,105.443,229.246z M105.443,267.016
			c-6.075,0-11.016-4.942-11.016-11.016c0-6.075,4.942-11.016,11.016-11.016s11.016,4.942,11.016,11.016
			C116.459,262.075,111.517,267.016,105.443,267.016z"/>
	</g>
</g>
<g>
	<g>
		<path d="M105.443,194.623c-33.843,0-61.377,27.534-61.377,61.377c0,33.843,27.534,61.377,61.377,61.377
			c33.843,0,61.377-27.534,61.377-61.377S139.286,194.623,105.443,194.623z M105.443,301.639c-25.166,0-45.639-20.474-45.639-45.639
			s20.474-45.639,45.639-45.639s45.639,20.474,45.639,45.639S130.608,301.639,105.443,301.639z"/>
	</g>
</g>
<g>
	<g>
		<rect x="400.262" y="294.295" width="15.738" height="15.738"/>
	</g>
</g>
<g>
	<g>
		<path d="M434.885,294.292v15.738h61.377v35.672h-21.902v-13.073h-15.738v13.073h-21.902v-20.417h-15.738v20.417h-21.902v-13.073
			h-15.738v13.073h-21.902v-20.417h-15.738v20.417h-21.902v-13.073h-15.738v13.073h-21.902v-20.417h-15.738v20.417h-21.902v-13.073
			h-15.738v13.073h-29.789c4.95-6.579,7.888-14.755,7.888-23.603V310.03h171.016v-15.738H210.885V256
			c0-58.141-47.301-105.443-105.443-105.443S0,197.859,0,256v66.098c0,21.695,17.649,39.344,39.344,39.344L512,361.439v-67.148
			H434.885z M195.148,322.098c0,12.976-10.524,23.538-23.486,23.603h-0.121v0.003H39.344c-13.016,0-23.607-10.59-23.607-23.607V256
			c0-49.464,40.241-89.705,89.705-89.705s89.705,40.241,89.705,89.705V322.098z"/>
	</g>
</g>
<g>
</g>
<g>
</g>
<g>
</g>
<g>
</g>
<g>
</g>
<g>
</g>
<g>
</g>
<g>
</g>
<g>
</g>
<g>
</g>
<g>
</g>
<g>
</g>
<g>
</g>
<g>
</g>
<g>
</g>
</svg>
