<?xml version="1.0" encoding="iso-8859-1"?>
<!-- Generator: Adobe Illustrator 19.0.0, SVG Export Plug-In . SVG Version: 6.00 Build 0)  -->
<svg version="1.1" id="Layer_1" xmlns="http://www.w3.org/2000/svg" xmlns:xlink="http://www.w3.org/1999/xlink" x="0px" y="0px"
	 viewBox="0 0 512 512" style="enable-background:new 0 0 512 512;" xml:space="preserve">
<g>
	<g>
		<path d="M255.999,244.437c-58.898,0-106.816,47.917-106.816,106.816c0,58.898,47.917,106.816,106.816,106.816
			c58.898,0,106.816-47.917,106.816-106.816S314.898,244.437,255.999,244.437z M255.999,442.36
			c-50.237,0-91.107-40.871-91.107-91.107s40.871-91.107,91.107-91.107s91.108,40.871,91.108,91.107S306.237,442.36,255.999,442.36z
			"/>
	</g>
</g>
<g>
	<g>
		<rect x="319.672" y="177.942" width="15.708" height="15.708"/>
	</g>
</g>
<g>
	<g>
		<path d="M255.999,291.852c-20.505,0-37.186,16.703-37.186,37.236c0,12.344,6.006,23.662,15.953,30.568v50.997h42.468v-50.997
			c9.947-6.907,15.953-18.225,15.953-30.568C293.186,308.556,276.504,291.852,255.999,291.852z M265.785,348.248l-4.26,2.193v44.504
			h-11.051v-44.504l-4.26-2.193c-7.212-3.711-11.693-11.053-11.693-19.161c0-11.87,9.635-21.528,21.478-21.528
			c11.843,0,21.478,9.657,21.478,21.528C277.478,337.195,272.997,344.537,265.785,348.248z"/>
	</g>
</g>
<g>
	<g>
		<path d="M366.261,234.395V110.433C366.261,49.54,316.798,0,255.999,0C195.2,0,145.738,49.54,145.738,110.433v123.963
			c-31.065,29.327-50.485,70.865-50.485,116.857C95.253,439.89,167.364,512,256,512s160.747-72.11,160.747-160.747
			C416.746,305.26,397.327,263.723,366.261,234.395z M161.445,110.433h0.001c0-52.232,42.416-94.725,94.553-94.725
			s94.553,42.493,94.553,94.725v110.908c-26.553-19.379-59.238-30.835-94.553-30.835c-22.61,0-44.14,4.702-63.677,13.164v-93.237
			c0-35.178,28.565-63.796,63.677-63.796c35.112,0,63.677,28.618,63.677,63.796v49.18h15.708v-49.18
			c0-43.838-35.612-79.504-79.385-79.504c-43.773,0-79.385,35.666-79.385,79.504v101.084c-5.249,2.993-10.31,6.277-15.169,9.824
			V110.433z M255.999,496.292c-79.975,0-145.039-65.064-145.039-145.039s65.064-145.039,145.039-145.039
			s145.039,65.064,145.039,145.039S335.975,496.292,255.999,496.292z"/>
	</g>
</g>
<g>
</g>
<g>
</g>
<g>
</g>
<g>
</g>
<g>
</g>
<g>
</g>
<g>
</g>
<g>
</g>
<g>
</g>
<g>
</g>
<g>
</g>
<g>
</g>
<g>
</g>
<g>
</g>
<g>
</g>
</svg>
