<?xml version="1.0" encoding="iso-8859-1"?>
<!-- Generator: Adobe Illustrator 19.0.0, SVG Export Plug-In . SVG Version: 6.00 Build 0)  -->
<svg version="1.1" id="Layer_1" xmlns="http://www.w3.org/2000/svg" xmlns:xlink="http://www.w3.org/1999/xlink" x="0px" y="0px"
	 viewBox="0 0 512 512" style="enable-background:new 0 0 512 512;" xml:space="preserve">
<g>
	<g>
		<rect x="215.97" y="22.988" width="15.673" height="52.746"/>
	</g>
</g>
<g>
	<g>
		<rect x="313.469" y="145.889" width="15.674" height="15.673"/>
	</g>
</g>
<g>
	<g>
		<path d="M151.591,0v101.484v7.837v107.224l77.511,22.295l-9.948,234.718c-0.429,10.138,3.201,19.756,10.222,27.082
			C236.396,507.966,245.852,512,256,512s19.604-4.034,26.625-11.361c7.023-7.326,10.652-16.944,10.222-27.082l-9.948-234.718
			l77.51-22.295V109.32v-7.837V0H151.591z M266.718,227.185l10.471,247.036c0.247,5.83-1.841,11.36-5.879,15.573
			c-4.038,4.212-9.474,6.533-15.31,6.533s-11.272-2.321-15.31-6.533c-4.037-4.213-6.125-9.744-5.879-15.573l10.471-247.036
			l-78.018-22.44v-43.179h127.92v-15.673H167.264V109.32h177.472v95.424h0L266.718,227.185z M344.737,93.647H167.264V15.673h16.518
			v60.058h15.673V15.673h48.708v60.058h15.673V15.673h16.518v60.058h15.673V15.673h16.518v60.058h15.673V15.673h16.518V93.647z"/>
	</g>
</g>
<g>
	<g>
		<circle cx="256" cy="463.412" r="9.927"/>
	</g>
</g>
<g>
</g>
<g>
</g>
<g>
</g>
<g>
</g>
<g>
</g>
<g>
</g>
<g>
</g>
<g>
</g>
<g>
</g>
<g>
</g>
<g>
</g>
<g>
</g>
<g>
</g>
<g>
</g>
<g>
</g>
</svg>
