<?xml version="1.0" encoding="iso-8859-1"?>
<!-- Generator: Adobe Illustrator 19.0.0, SVG Export Plug-In . SVG Version: 6.00 Build 0)  -->
<svg version="1.1" id="Layer_1" xmlns="http://www.w3.org/2000/svg" xmlns:xlink="http://www.w3.org/1999/xlink" x="0px" y="0px"
	 viewBox="0 0 512 512" style="enable-background:new 0 0 512 512;" xml:space="preserve">
<g>
	<g>
		<path d="M300.482,84.804c-2.008-5.013-4.768-9.498-8.276-13.447c-3.512-3.95-7.682-7.148-12.508-9.593
			c-4.828-2.445-10.126-3.668-15.892-3.668h-55.297v133.538h13.168v-49.277h43.257c5.768,0,11.004-1.19,15.706-3.574
			c4.702-2.379,8.745-5.515,12.13-9.404c3.385-3.885,6.019-8.37,7.901-13.448c1.88-5.077,2.82-10.374,2.82-15.893
			C303.491,94.899,302.487,89.822,300.482,84.804z M288.442,111.606c-1.253,3.7-3.008,6.959-5.265,9.78
			c-2.257,2.821-4.984,5.077-8.182,6.77c-3.198,1.693-6.741,2.54-10.627,2.54h-42.693V69.757h0.001h41.565
			c3.635,0,7.115,0.785,10.439,2.351c3.321,1.569,6.207,3.731,8.651,6.489c2.445,2.76,4.388,5.989,5.831,9.686
			c1.441,3.7,2.163,7.617,2.163,11.755C290.324,104.053,289.695,107.909,288.442,111.606z"/>
	</g>
</g>
<g>
	<g>
		<rect x="278.988" y="496.327" width="15.674" height="15.673"/>
	</g>
</g>
<g>
	<g>
		<rect x="312.947" y="496.327" width="43.363" height="15.673"/>
	</g>
</g>
<g>
	<g>
		<rect x="131.135" y="171.363" width="15.673" height="15.673"/>
	</g>
</g>
<g>
	<g>
		<polygon points="131.135,0 131.135,153.078 146.808,153.078 146.808,15.673 365.192,15.673 365.192,234.057 146.808,234.057 
			146.808,205.845 131.135,205.845 131.135,249.731 248.163,249.731 248.163,496.327 167.184,496.327 167.184,512 263.837,512 
			263.837,249.731 380.865,249.731 380.865,0 		"/>
	</g>
</g>
<g>
</g>
<g>
</g>
<g>
</g>
<g>
</g>
<g>
</g>
<g>
</g>
<g>
</g>
<g>
</g>
<g>
</g>
<g>
</g>
<g>
</g>
<g>
</g>
<g>
</g>
<g>
</g>
<g>
</g>
</svg>
