<?xml version="1.0" encoding="iso-8859-1"?>
<!-- Generator: Adobe Illustrator 19.0.0, SVG Export Plug-In . SVG Version: 6.00 Build 0)  -->
<svg version="1.1" id="Layer_1" xmlns="http://www.w3.org/2000/svg" xmlns:xlink="http://www.w3.org/1999/xlink" x="0px" y="0px"
	 viewBox="0 0 512 512" style="enable-background:new 0 0 512 512;" xml:space="preserve">
<g>
	<g>
		<path d="M493.714,170.315h-38.661c-10.083,0-18.286,8.203-18.286,18.286v13.584H263.837V167.82l46.61-46.609H332.8v-15.673H179.2
			v15.673h22.354l46.61,46.609v34.365H75.233v-13.584c0-10.082-8.203-18.286-18.286-18.286H18.286
			C8.203,170.315,0,178.519,0,188.601v199.575c0,10.083,8.203,18.286,18.286,18.286h38.661c10.082,0,18.286-8.202,18.286-18.286
			v-13.584h361.535v13.584c0,10.083,8.202,18.286,18.286,18.286h38.661c10.082,0,18.286-8.202,18.286-18.286V188.601
			C512,178.519,503.797,170.315,493.714,170.315z M263.837,121.211h24.443l-24.443,24.443V121.211z M59.559,201.812H37.528v15.674
			h22.032v15.823H37.528v15.673h22.032v15.824H37.528v15.673h22.032v15.823H37.528v15.674h22.032v15.823H37.528v15.673h22.032
			v15.823H37.528v15.673h22.032v13.211c0,1.439-1.171,2.61-2.612,2.61H18.286c-1.441,0-2.612-1.171-2.612-2.612V188.601
			c0-1.441,1.171-2.612,2.612-2.612h38.661c1.441,0,2.612,1.171,2.612,2.612V201.812z M223.72,121.211h24.443v24.443L223.72,121.211
			z M436.767,358.919H75.233V217.858h361.535V358.919z M496.327,388.176c0,1.441-1.171,2.612-2.612,2.612h-38.661
			c-1.441,0-2.612-1.171-2.612-2.612v-13.211h22.033v-15.673h-22.033v-15.823h22.033v-15.674h-22.033v-15.823h22.033V296.3h-22.033
			v-15.823h22.033v-15.673h-22.033v-15.824h22.033v-15.673h-22.033v-15.821h22.033v-15.673h-22.033v-13.211
			c0-1.441,1.171-2.612,2.612-2.612h38.661c1.441,0,2.612,1.171,2.612,2.612V388.176z"/>
	</g>
</g>
<g>
	<g>
		<rect x="370.939" y="233.305" width="15.673" height="15.673"/>
	</g>
</g>
<g>
	<g>
		<rect x="125.388" y="233.305" width="226.743" height="15.673"/>
	</g>
</g>
<g>
</g>
<g>
</g>
<g>
</g>
<g>
</g>
<g>
</g>
<g>
</g>
<g>
</g>
<g>
</g>
<g>
</g>
<g>
</g>
<g>
</g>
<g>
</g>
<g>
</g>
<g>
</g>
<g>
</g>
</svg>
