<?xml version="1.0" encoding="iso-8859-1"?>
<!-- Generator: Adobe Illustrator 19.0.0, SVG Export Plug-In . SVG Version: 6.00 Build 0)  -->
<svg version="1.1" id="Layer_1" xmlns="http://www.w3.org/2000/svg" xmlns:xlink="http://www.w3.org/1999/xlink" x="0px" y="0px"
	 viewBox="0 0 512 512" style="enable-background:new 0 0 512 512;" xml:space="preserve">
<g>
	<g>
		<rect x="117.44" y="433.324" width="15.51" height="15.51"/>
	</g>
</g>
<g>
	<g>
		<path d="M151.567,448.839H512L442.716,218.26h-86.562c6.155-15.313,9.968-30.594,9.968-44.978
			c0-18.689-4.769-37.155-13.791-53.398l-13.559,7.531c7.747,13.945,11.841,29.806,11.841,45.867
			c0,58.181-73.826,137.842-94.611,159.112c-20.785-21.259-94.608-100.881-94.608-159.112c0-52.168,42.442-94.61,94.61-94.61
			c17.613,0,34.796,4.87,49.691,14.083l8.159-13.191c-17.348-10.731-37.353-16.402-57.85-16.402
			c-60.72,0-110.12,49.399-110.12,110.12c0,14.385,3.812,29.665,9.968,44.979H69.284L0,448.839h99.351v-15.51H20.856L80.82,233.77
			h82.02c28.831,57.942,84.617,112.142,87.78,115.188l5.38,5.181l5.38-5.181c3.164-3.047,58.95-57.247,87.78-115.188h82.02
			l59.964,199.56H151.567V448.839z"/>
	</g>
</g>
<g>
	<g>
		<path d="M329.414,91.201l-10.344,11.558c3.411,3.053,6.629,6.382,9.562,9.892l11.902-9.946
			C337.123,98.623,333.382,94.753,329.414,91.201z"/>
	</g>
</g>
<g>
	<g>
		<path d="M256,112.276c-33.639,0-61.005,27.367-61.005,61.005s27.367,61.005,61.005,61.005s61.005-27.367,61.005-61.005
			S289.639,112.276,256,112.276z M256,218.777c-25.087,0-45.495-20.409-45.495-45.495s20.409-45.495,45.495-45.495
			c25.087,0,45.496,20.409,45.496,45.495S281.087,218.777,256,218.777z"/>
	</g>
</g>
<g>
</g>
<g>
</g>
<g>
</g>
<g>
</g>
<g>
</g>
<g>
</g>
<g>
</g>
<g>
</g>
<g>
</g>
<g>
</g>
<g>
</g>
<g>
</g>
<g>
</g>
<g>
</g>
<g>
</g>
</svg>
