<?xml version="1.0" encoding="iso-8859-1"?>
<!-- Generator: Adobe Illustrator 19.0.0, SVG Export Plug-In . SVG Version: 6.00 Build 0)  -->
<svg version="1.1" id="Layer_1" xmlns="http://www.w3.org/2000/svg" xmlns:xlink="http://www.w3.org/1999/xlink" x="0px" y="0px"
	 viewBox="0 0 512 512" style="enable-background:new 0 0 512 512;" xml:space="preserve">
<g>
	<g>
		<path d="M379.328,378.236l-15.639,0.871c0.379,6.809,0.571,13.749,0.571,20.627c0,28.148-3.138,55.515-9.327,81.34
			c-1.327,5.538-4.82,10.092-9.838,12.825c-4.982,2.712-10.905,3.187-16.252,1.306c-9.702-3.413-15.208-13.551-12.805-23.578
			c5.432-22.685,8.187-46.873,8.187-71.894c0-47.692-10.578-94.071-29.02-127.244c-2.947-5.301-6.097-10.276-9.363-14.785
			l-2.344-3.239l-54.998,0.004l-2.344,3.238c-3.264,4.507-6.413,9.48-9.36,14.782c-18.443,33.174-29.02,79.552-29.02,127.244
			c0,25.022,2.755,49.211,8.188,71.894c2.403,10.029-3.102,20.167-12.805,23.578c-5.347,1.881-11.273,1.407-16.253-1.306
			c-5.017-2.732-8.51-7.286-9.837-12.824c-6.19-25.823-9.328-53.19-9.328-81.341c0-55.086,12.097-107.185,34.063-146.697
			c6.985-12.566,14.838-23.594,23.357-32.872h50.837v-15.663h-46.421v-24.899h92.852v35.888l2.19,2.274
			c9.382,9.748,17.991,21.614,25.583,35.271c11.974,21.539,20.997,46.637,26.821,74.597l15.335-3.194
			c-6.147-29.508-15.725-56.091-28.467-79.013c-7.662-13.783-16.332-25.947-25.798-36.2v-45.285h-9.019l9.795-63.819L282.459,0
			H229.73l-36.599,100.123l9.954,63.816h-9.173v45.283c-9.467,10.254-18.137,22.419-25.8,36.203
			c-23.238,41.802-36.035,96.604-36.035,154.307c0,29.38,3.284,57.975,9.758,84.993c2.34,9.762,8.747,18.119,17.579,22.929
			c5.292,2.883,11.182,4.347,17.098,4.346c3.996,0,8.004-0.668,11.844-2.019c17.298-6.085,27.118-24.142,22.84-42.003
			c-5.148-21.489-7.757-44.449-7.757-68.245c0-45.11,9.858-88.716,27.047-119.634c1.952-3.511,3.993-6.85,6.095-9.967l38.838-0.004
			c2.102,3.119,4.146,6.46,6.098,9.972c17.189,30.917,27.046,74.522,27.046,119.633c0,23.794-2.609,46.755-7.756,68.245
			c-4.278,17.86,5.542,35.917,22.839,42.003c9.526,3.351,20.074,2.502,28.942-2.328c8.833-4.809,15.24-13.166,17.58-22.93
			c6.474-27.021,9.757-55.615,9.757-84.991C379.923,392.567,379.724,385.333,379.328,378.236z M263.827,15.663h7.661l31.288,86.043
			l-9.552,62.233h-29.397v-48.95c13.256-3.474,23.066-15.555,23.066-29.887c0-14.332-9.809-26.412-23.066-29.887V15.663z
			 M271.231,85.102c0,8.398-6.832,15.231-15.23,15.231c-8.398,0-15.231-6.832-15.231-15.231s6.832-15.231,15.231-15.231
			C264.398,69.872,271.231,76.704,271.231,85.102z M240.682,15.663h7.483v39.555c-13.252,3.478-23.057,15.555-23.057,29.884
			s9.805,26.406,23.057,29.884v48.953h-29.227l-9.707-62.236L240.682,15.663z"/>
	</g>
</g>
<g>
	<g>
		<path d="M375.701,343.043l-15.485,2.356c0.767,5.036,1.433,10.185,1.982,15.307l15.573-1.667
			C377.198,353.689,376.502,348.307,375.701,343.043z"/>
	</g>
</g>
<g>
</g>
<g>
</g>
<g>
</g>
<g>
</g>
<g>
</g>
<g>
</g>
<g>
</g>
<g>
</g>
<g>
</g>
<g>
</g>
<g>
</g>
<g>
</g>
<g>
</g>
<g>
</g>
<g>
</g>
</svg>
