<?xml version="1.0" encoding="iso-8859-1"?>
<!-- Generator: Adobe Illustrator 19.0.0, SVG Export Plug-In . SVG Version: 6.00 Build 0)  -->
<svg version="1.1" id="Layer_1" xmlns="http://www.w3.org/2000/svg" xmlns:xlink="http://www.w3.org/1999/xlink" x="0px" y="0px"
	 viewBox="0 0 512 512" style="enable-background:new 0 0 512 512;" xml:space="preserve">
<g>
	<g>
		<rect x="213.658" y="324.434" width="79.445" height="15.706"/>
	</g>
</g>
<g>
	<g>
		<path d="M253.382,33.696c-42.617,0-77.29,34.673-77.29,77.29c0,42.617,34.673,77.29,77.29,77.29
			c42.617,0,77.29-34.673,77.29-77.29C330.672,68.368,296,33.696,253.382,33.696z M253.382,172.57
			c-33.957,0-61.584-27.627-61.584-61.585c0-33.957,27.627-61.584,61.584-61.584c33.957,0,61.585,27.627,61.585,61.584
			C314.967,144.943,287.34,172.57,253.382,172.57z"/>
	</g>
</g>
<g>
	<g>
		<path d="M261.235,496.294v-72.245h26.417v-7.853c0-21.448,13.536-40.787,33.682-48.122l5.166-1.88v-71.287h-31.079v-53.528
			h-15.706v53.528h-52.668v-53.528h-15.706v53.528h-31.079v71.287l5.166,1.88c20.147,7.334,33.682,26.673,33.682,48.122v7.853
			h26.417V512h89.524v-15.706H261.235z M234.353,408.344c-2.733-22.972-17.306-43.146-38.383-52.896v-44.835h114.825v44.835
			c-21.077,9.75-35.649,29.924-38.383,52.896H234.353z"/>
	</g>
</g>
<g>
	<g>
		<rect x="353.898" y="496.294" width="15.706" height="15.706"/>
	</g>
</g>
<g>
	<g>
		<rect x="142.397" y="102.871" width="15.706" height="15.706"/>
	</g>
</g>
<g>
	<g>
		<polygon points="142.397,0 142.397,84.548 158.102,84.548 158.102,15.706 348.663,15.706 348.663,206.266 158.102,206.266 
			158.102,137.423 142.397,137.423 142.397,221.971 364.368,221.971 364.368,0 		"/>
	</g>
</g>
<g>
	<g>
		<circle cx="224.589" cy="110.986" r="11.308"/>
	</g>
</g>
<g>
	<g>
		<circle cx="282.176" cy="110.986" r="11.308"/>
	</g>
</g>
<g>
</g>
<g>
</g>
<g>
</g>
<g>
</g>
<g>
</g>
<g>
</g>
<g>
</g>
<g>
</g>
<g>
</g>
<g>
</g>
<g>
</g>
<g>
</g>
<g>
</g>
<g>
</g>
<g>
</g>
</svg>
