<?xml version="1.0" encoding="iso-8859-1"?>
<!-- Generator: Adobe Illustrator 19.0.0, SVG Export Plug-In . SVG Version: 6.00 Build 0)  -->
<svg version="1.1" id="Layer_1" xmlns="http://www.w3.org/2000/svg" xmlns:xlink="http://www.w3.org/1999/xlink" x="0px" y="0px"
	 viewBox="0 0 512 512" style="enable-background:new 0 0 512 512;" xml:space="preserve">
<g>
	<g>
		
			<rect x="383.195" y="278.053" transform="matrix(0.9635 -0.2677 0.2677 0.9635 -62.2707 115.0503)" width="15.184" height="15.673"/>
	</g>
</g>
<g>
	<g>
		<polygon points="340.505,54.403 171.495,54.403 146.164,90.095 158.946,99.167 179.591,70.076 332.409,70.076 353.054,99.167 
			365.836,90.095 		"/>
	</g>
</g>
<g>
	<g>
		<rect x="83.592" y="108.607" width="15.673" height="15.673"/>
	</g>
</g>
<g>
	<g>
		<path d="M118.073,108.602v15.673h378.253v124.134l-81.51,22.651l4.196,15.102l53.95-14.992v170.755H39.037V271.17l151.656,42.148
			v38.745h132.702v-39.33l42.327-11.762l-4.196-15.102l-38.13,10.597v-24.86H190.694v25.444l-175.02-48.641V124.275h49.633v-15.673
			H0v151.719l23.364,6.493v190.784h465.272V266.814L512,260.321V108.602H118.073z M206.367,287.279h41.796v24.267h15.673v-24.267
			h43.886v49.11H206.367V287.279z"/>
	</g>
</g>
<g>
</g>
<g>
</g>
<g>
</g>
<g>
</g>
<g>
</g>
<g>
</g>
<g>
</g>
<g>
</g>
<g>
</g>
<g>
</g>
<g>
</g>
<g>
</g>
<g>
</g>
<g>
</g>
<g>
</g>
</svg>
