<?xml version="1.0" encoding="iso-8859-1"?>
<!-- Generator: Adobe Illustrator 19.0.0, SVG Export Plug-In . SVG Version: 6.00 Build 0)  -->
<svg version="1.1" id="Layer_1" xmlns="http://www.w3.org/2000/svg" xmlns:xlink="http://www.w3.org/1999/xlink" x="0px" y="0px"
	 viewBox="0 0 512 512" style="enable-background:new 0 0 512 512;" xml:space="preserve">
<g>
	<g>
		<path d="M0,197.366v117.268h512V197.366H0z M496.327,298.959h-15.347v-28.974h-15.673v28.974h-15.347v-17.48h-15.673v17.48
			h-15.347v-28.974h-15.673v28.974h-15.345v-17.48h-15.674v17.48h-15.347v-28.974h-15.673v28.974h-15.347v-17.48h-15.673v17.48
			h-15.347v-28.974h-15.673v28.974h-15.345v-17.48h-15.673v17.48h-15.347v-28.974h-15.673v28.974h-15.347v-17.48h-15.673v17.48
			h-15.347v-28.974H155.1v28.974h-15.345v-17.48h-15.673v17.48h-15.347v-28.974H93.061v28.974H77.714v-17.48H62.041v17.48H46.694
			v-28.974H31.021v28.974H15.673v-85.921h480.653V298.959z"/>
	</g>
</g>
<g>
	<g>
		<rect x="30.302" y="225.582" width="393.927" height="15.673"/>
	</g>
</g>
<g>
	<g>
		<rect x="443.037" y="225.582" width="15.673" height="15.673"/>
	</g>
</g>
<g>
</g>
<g>
</g>
<g>
</g>
<g>
</g>
<g>
</g>
<g>
</g>
<g>
</g>
<g>
</g>
<g>
</g>
<g>
</g>
<g>
</g>
<g>
</g>
<g>
</g>
<g>
</g>
<g>
</g>
</svg>
