<?xml version="1.0" encoding="iso-8859-1"?>
<!-- Generator: Adobe Illustrator 19.0.0, SVG Export Plug-In . SVG Version: 6.00 Build 0)  -->
<svg version="1.1" id="Layer_1" xmlns="http://www.w3.org/2000/svg" xmlns:xlink="http://www.w3.org/1999/xlink" x="0px" y="0px"
	 viewBox="0 0 511.999 511.999" style="enable-background:new 0 0 511.999 511.999;" xml:space="preserve">
<g>
	<g>
		<path d="M53.055,219.551L53.055,219.551v72.899H93.64v-72.899H53.055z M78.029,276.84h-9.364v-41.678h9.364V276.84z"/>
	</g>
</g>
<g>
	<g>
		<rect x="228.419" y="190.435" width="15.61" height="15.61"/>
	</g>
</g>
<g>
	<g>
		<path d="M262.757,190.438v15.61H496.39v43.82l-35.057-12.08l-36.778,26.841l-43.154-14.321l-36.732,26.808l-43.159-14.321
			l-36.734,26.809l-43.16-14.321l-36.739,26.81l-34.005-11.281v-84.765h59.331v-15.61h-67.136h-7.805H0.271l23.648,34.536v62.749
			L0,321.564h97.772l37.488-37.493v18.01l52.327,17.359l36.738-26.81l43.161,14.321l36.734-26.809l43.159,14.321l36.731-26.808
			l43.155,14.321l36.685-26.775l48.048,16.558v-81.321H262.757z M135.262,261.994l-43.956,43.959H30.15l9.38-13.271v-72.54
			l-9.65-14.095h105.383V261.994z"/>
	</g>
</g>
<g>
</g>
<g>
</g>
<g>
</g>
<g>
</g>
<g>
</g>
<g>
</g>
<g>
</g>
<g>
</g>
<g>
</g>
<g>
</g>
<g>
</g>
<g>
</g>
<g>
</g>
<g>
</g>
<g>
</g>
</svg>
