<?xml version="1.0" encoding="iso-8859-1"?>
<!-- Generator: Adobe Illustrator 19.0.0, SVG Export Plug-In . SVG Version: 6.00 Build 0)  -->
<svg version="1.1" id="Layer_1" xmlns="http://www.w3.org/2000/svg" xmlns:xlink="http://www.w3.org/1999/xlink" x="0px" y="0px"
	 viewBox="0 0 512 512" style="enable-background:new 0 0 512 512;" xml:space="preserve">
<g>
	<g>
		<path d="M233.012,36.049c-10.082,0-18.286,8.203-18.286,18.286v97.175c0,10.082,8.203,18.286,18.286,18.286
			s18.286-8.203,18.286-18.286V54.335C251.298,44.252,243.094,36.049,233.012,36.049z M235.625,151.51
			c0,1.441-1.172,2.612-2.612,2.612s-2.612-1.171-2.612-2.612V54.335c0-1.441,1.172-2.612,2.612-2.612s2.612,1.171,2.612,2.612
			V151.51z"/>
	</g>
</g>
<g>
	<g>
		<path d="M278.988,36.049c-10.082,0-18.286,8.203-18.286,18.286v97.175c0,10.082,8.204,18.286,18.286,18.286
			c10.082,0,18.286-8.203,18.286-18.286V54.335C297.273,44.252,289.07,36.049,278.988,36.049z M281.6,151.51
			c0,1.441-1.172,2.612-2.612,2.612c-1.44,0-2.612-1.171-2.612-2.612V54.335c0-1.441,1.172-2.612,2.612-2.612
			c1.44,0,2.612,1.171,2.612,2.612V151.51z"/>
	</g>
</g>
<g>
	<g>
		<path d="M321.306,205.845V28.735C321.306,12.891,308.416,0,292.571,0h-73.143c-15.845,0-28.735,12.891-28.735,28.735v177.11
			h27.167v13.092l-27.167,11.494v39.153h44.408v168.491l-15.151,22.988V512h72.098v-50.938l-15.151-22.988v-83.332h-15.673v88.032
			l15.151,22.988v30.564h-40.751v-30.564l15.151-22.988V269.584h10.449v32.392h15.673v-32.392h44.408V230.43l-27.167-11.494v-13.091
			H321.306z M305.633,240.819v13.092h-99.265v-13.092l27.167-11.494v-39.153h-27.167V28.735c0-7.202,5.859-13.061,13.061-13.061
			h73.143c7.203,0,13.061,5.859,13.061,13.061v161.437h-27.167v39.153L305.633,240.819z"/>
	</g>
</g>
<g>
	<g>
		<rect x="261.224" y="320.261" width="15.673" height="15.673"/>
	</g>
</g>
<g>
</g>
<g>
</g>
<g>
</g>
<g>
</g>
<g>
</g>
<g>
</g>
<g>
</g>
<g>
</g>
<g>
</g>
<g>
</g>
<g>
</g>
<g>
</g>
<g>
</g>
<g>
</g>
<g>
</g>
</svg>
