<?xml version="1.0" encoding="iso-8859-1"?>
<!-- Generator: Adobe Illustrator 19.0.0, SVG Export Plug-In . SVG Version: 6.00 Build 0)  -->
<svg version="1.1" id="Layer_1" xmlns="http://www.w3.org/2000/svg" xmlns:xlink="http://www.w3.org/1999/xlink" x="0px" y="0px"
	 viewBox="0 0 512.003 512.003" style="enable-background:new 0 0 512.003 512.003;" xml:space="preserve">
<g>
	<g>
		<rect x="212.242" y="175.5" width="15.63" height="15.63"/>
	</g>
</g>
<g>
	<g>
		<path d="M309.663,126.536V89.801h41.679V35.618H334.15V0H177.853v35.618h-17.193v54.183h41.679v36.736l9.899,11.652v19.079h15.63
			v-24.821l-9.899-11.652V89.801h76.064v30.992l-9.899,11.652v71.35l-56.267,26.238v-20.926h-15.63v28.215l-14.781,6.893
			l6.605,14.165l8.176-3.813v28.776l-14.778,6.892l6.605,14.165l8.173-3.812v28.776l-14.776,6.89l6.605,14.165l8.171-3.811v28.777
			l-14.773,6.888l6.605,14.165l8.168-3.808v28.776l-14.77,6.887l6.605,14.165l8.165-3.807v45.677l43.763,27.675l43.763-27.675
			v-86.49l14.77-6.887l-6.605-14.165l-8.165,3.807v-28.776l14.773-6.888l-6.605-14.165l-8.168,3.808v-28.776l14.776-6.891
			l-6.605-14.165l-8.171,3.81v-28.776l14.778-6.892l-6.605-14.165l-8.173,3.812v-28.776l14.781-6.893l-6.605-14.165l-8.176,3.813
			V138.19L309.663,126.536z M284.135,475.716l-28.133,17.791l-28.133-17.791V431.36l56.267-26.238V475.716z M284.135,387.878
			l-56.267,26.238v-28.776l56.267-26.238V387.878z M284.135,341.857l-56.267,26.238v-28.777l56.267-26.237V341.857z
			 M284.135,295.837l-56.267,26.237v-28.776l56.267-26.238V295.837z M284.135,249.816l-56.267,26.238v-28.776l56.267-26.238V249.816
			z M193.483,15.63H318.52v19.988H193.483V15.63z M176.29,74.171V51.247h159.422v22.924H176.29z"/>
	</g>
</g>
<g>
</g>
<g>
</g>
<g>
</g>
<g>
</g>
<g>
</g>
<g>
</g>
<g>
</g>
<g>
</g>
<g>
</g>
<g>
</g>
<g>
</g>
<g>
</g>
<g>
</g>
<g>
</g>
<g>
</g>
</svg>
