<?xml version="1.0" encoding="iso-8859-1"?>
<!-- Generator: Adobe Illustrator 19.0.0, SVG Export Plug-In . SVG Version: 6.00 Build 0)  -->
<svg version="1.1" id="Layer_1" xmlns="http://www.w3.org/2000/svg" xmlns:xlink="http://www.w3.org/1999/xlink" x="0px" y="0px"
	 viewBox="0 0 512 512" style="enable-background:new 0 0 512 512;" xml:space="preserve">
<g>
	<g>
		<rect x="212.114" y="175.992" width="15.673" height="15.673"/>
	</g>
</g>
<g>
	<g>
		<path d="M309.812,126.89V90.052h40.751V74.71c0-41.195-33.515-74.71-74.71-74.71h-7.837v37.801h-24.033V0h-7.837
			c-41.195,0-74.71,33.515-74.71,74.71v15.342h40.751v36.839l9.927,11.685v19.133h15.673v-24.892l-9.927-11.685V90.052h76.278
			v31.079l-9.927,11.685v71.55l-56.424,26.312v-20.986h-15.673v28.294l-14.823,6.912l6.624,14.204l8.199-3.823v28.857l-14.82,6.911
			l6.624,14.204l8.196-3.822v28.857l-14.818,6.91l6.624,14.204l8.194-3.821v28.857l-14.815,6.908l6.624,14.204l8.191-3.819v28.857
			l-14.811,6.907l6.624,14.204l8.188-3.818V512h87.771V398.949l14.811-6.907l-6.624-14.204l-8.188,3.819V352.8l14.815-6.908
			l-6.624-14.204l-8.191,3.819V306.65l14.818-6.91l-6.624-14.204l-8.194,3.821V260.5l14.82-6.911l-6.624-14.204l-8.196,3.822V214.35
			l14.823-6.912l-6.624-14.204l-8.199,3.824v-58.483L309.812,126.89z M284.212,496.327h-56.424V432.57l56.424-26.312V496.327z
			 M284.212,388.965l-56.424,26.312V386.42l56.424-26.312V388.965z M284.212,342.816l-56.424,26.312v-28.857l56.424-26.312V342.816z
			 M284.212,296.666l-56.424,26.312v-28.857l56.424-26.312V296.666z M284.212,250.516l-56.424,26.312v-28.857l56.424-26.312V250.516
			z M177.111,74.379c0.165-29.747,22.444-54.358,51.199-58.187v37.283h55.38V16.192c28.755,3.83,51.034,28.44,51.199,58.187H177.111
			z"/>
	</g>
</g>
<g>
</g>
<g>
</g>
<g>
</g>
<g>
</g>
<g>
</g>
<g>
</g>
<g>
</g>
<g>
</g>
<g>
</g>
<g>
</g>
<g>
</g>
<g>
</g>
<g>
</g>
<g>
</g>
<g>
</g>
</svg>
