<?xml version="1.0" encoding="iso-8859-1"?>
<!-- Generator: Adobe Illustrator 19.0.0, SVG Export Plug-In . SVG Version: 6.00 Build 0)  -->
<svg version="1.1" id="Layer_1" xmlns="http://www.w3.org/2000/svg" xmlns:xlink="http://www.w3.org/1999/xlink" x="0px" y="0px"
	 viewBox="0 0 511.999 511.999" style="enable-background:new 0 0 511.999 511.999;" xml:space="preserve">
<g>
	<g>
		<path d="M62.718,230.181v187.895h187.895L62.718,230.181z M78.397,268.033l134.362,134.362H78.397V268.033z"/>
	</g>
</g>
<g>
	<g>
		
			<rect x="94.868" y="184.723" transform="matrix(0.7071 -0.7071 0.7071 0.7071 -106.0802 129.0265)" width="15.679" height="15.679"/>
	</g>
</g>
<g>
	<g>
		<polygon points="126.73,205.498 115.644,216.584 364.174,465.114 315.887,465.114 315.887,451.002 300.208,451.002 
			300.208,465.114 278.361,465.114 278.361,439.504 262.682,439.504 262.682,465.114 240.835,465.114 240.835,451.002 
			225.156,451.002 225.156,465.114 203.309,465.114 203.309,439.504 187.63,439.504 187.63,465.114 165.783,465.114 
			165.783,451.002 150.104,451.002 150.104,465.114 128.257,465.114 128.257,439.504 112.578,439.504 112.578,465.114 
			90.731,465.114 90.731,451.002 75.052,451.002 75.052,465.114 53.205,465.114 53.205,439.504 37.526,439.504 37.526,465.114 
			15.679,465.114 15.679,116.62 78.318,179.258 89.404,168.171 0,78.767 0,480.793 402.026,480.793 		"/>
	</g>
</g>
<g>
	<g>
		<rect x="424.9" y="144.031" transform="matrix(0.7071 -0.7071 0.7071 0.7071 19.3581 350.4751)" width="15.679" height="15.679"/>
	</g>
</g>
<g>
	<g>
		<path d="M459.522,31.206L263.43,227.297l-25.302,77.78l77.781-25.302l103.517-103.518l-11.086-11.087l-96.645,96.645l-9.608-9.608
			l151.521-151.521l9.608,9.608l-17.552,17.552l11.086,11.086l55.247-55.247L459.522,31.206z M262.566,280.641l11.237-34.543
			l23.306,23.306L262.566,280.641z M291,241.12l-9.608-9.608L432.913,79.988l9.609,9.609L291,241.12z M444.001,68.902l15.523-15.523
			l30.304,30.305l-15.522,15.522L444.001,68.902z"/>
	</g>
</g>
<g>
</g>
<g>
</g>
<g>
</g>
<g>
</g>
<g>
</g>
<g>
</g>
<g>
</g>
<g>
</g>
<g>
</g>
<g>
</g>
<g>
</g>
<g>
</g>
<g>
</g>
<g>
</g>
<g>
</g>
</svg>
