<?xml version="1.0" encoding="iso-8859-1"?>
<!-- Generator: Adobe Illustrator 19.0.0, SVG Export Plug-In . SVG Version: 6.00 Build 0)  -->
<svg version="1.1" id="Layer_1" xmlns="http://www.w3.org/2000/svg" xmlns:xlink="http://www.w3.org/1999/xlink" x="0px" y="0px"
	 viewBox="0 0 512 512" style="enable-background:new 0 0 512 512;" xml:space="preserve">
<g>
	<g>
		<path d="M275.331,329.143V60.601l32.392-15.425V15.673h16.327V0H187.951v15.673h16.327v29.503l32.392,15.425v43.889h15.673V68.065
			L256,69.807l3.657-1.742v261.078h-7.314V157.257h-15.673v171.886h-66.996v96.531C169.674,473.275,208.399,512,256,512
			s86.326-38.725,86.326-86.326v-96.531H275.331z M256,52.447l-36.049-17.166V15.673h72.098v19.608L256,52.447z M326.653,425.674
			c0,38.958-31.695,70.653-70.653,70.653s-70.653-31.695-70.653-70.653v-80.857h62.816v53.29h15.673v-53.29h62.816V425.674z"/>
	</g>
</g>
<g>
	<g>
		<rect x="248.163" y="416.392" width="15.673" height="15.673"/>
	</g>
</g>
<g>
	<g>
		<rect x="236.669" y="123.298" width="15.673" height="15.673"/>
	</g>
</g>
<g>
</g>
<g>
</g>
<g>
</g>
<g>
</g>
<g>
</g>
<g>
</g>
<g>
</g>
<g>
</g>
<g>
</g>
<g>
</g>
<g>
</g>
<g>
</g>
<g>
</g>
<g>
</g>
<g>
</g>
</svg>
