<?xml version="1.0" encoding="iso-8859-1"?>
<!-- Generator: Adobe Illustrator 19.0.0, SVG Export Plug-In . SVG Version: 6.00 Build 0)  -->
<svg version="1.1" id="Layer_1" xmlns="http://www.w3.org/2000/svg" xmlns:xlink="http://www.w3.org/1999/xlink" x="0px" y="0px"
	 viewBox="0 0 512 512" style="enable-background:new 0 0 512 512;" xml:space="preserve">
<g>
	<g>
		<path d="M294.204,75.601l-11.47-39.625h-18.913V0H248.18v35.976h-18.913l-11.47,39.625h-36.354v31.804h15.642V91.242h117.833
			v16.163h15.642V75.601H294.204z M234.081,75.601l6.942-23.984h29.956l6.943,23.984H234.081z"/>
	</g>
</g>
<g>
	<g>
		<rect x="214.029" y="95.413" width="15.642" height="15.642"/>
	</g>
</g>
<g>
	<g>
		<rect x="247.919" y="95.413" width="15.642" height="15.642"/>
	</g>
</g>
<g>
	<g>
		<rect x="282.33" y="95.413" width="15.642" height="15.642"/>
	</g>
</g>
<g>
	<g>
		<path d="M163.17,115.226V512h185.66V115.226H163.17z M333.188,496.358H178.812V466.64h105.865v-15.642H178.812v-320.13h154.377
			V496.358z"/>
	</g>
</g>
<g>
	<g>
		<polygon points="197.084,147.552 197.084,420.236 212.726,420.236 212.726,163.193 230.453,163.193 230.453,420.236 
			246.094,420.236 246.094,147.552 		"/>
	</g>
</g>
<g>
	<g>
		<polygon points="265.907,147.552 265.907,420.236 281.548,420.236 281.548,163.193 299.275,163.193 299.275,420.236 
			314.917,420.236 314.917,147.552 		"/>
	</g>
</g>
<g>
	<g>
		<rect x="302.925" y="450.998" width="15.642" height="15.642"/>
	</g>
</g>
<g>
</g>
<g>
</g>
<g>
</g>
<g>
</g>
<g>
</g>
<g>
</g>
<g>
</g>
<g>
</g>
<g>
</g>
<g>
</g>
<g>
</g>
<g>
</g>
<g>
</g>
<g>
</g>
<g>
</g>
</svg>
