<?xml version="1.0" encoding="iso-8859-1"?>
<!-- Generator: Adobe Illustrator 19.0.0, SVG Export Plug-In . SVG Version: 6.00 Build 0)  -->
<svg version="1.1" id="Layer_1" xmlns="http://www.w3.org/2000/svg" xmlns:xlink="http://www.w3.org/1999/xlink" x="0px" y="0px"
	 viewBox="0 0 512 512" style="enable-background:new 0 0 512 512;" xml:space="preserve">
<g>
	<g>
		<path d="M298.841,429.976h-85.682c-13.54,0-24.555,11.015-24.555,24.555s11.015,24.555,24.555,24.555h85.682
			c13.54,0,24.555-11.015,24.555-24.555S312.381,429.976,298.841,429.976z M298.841,463.412h-85.682
			c-4.897,0-8.882-3.985-8.882-8.882c0-4.896,3.984-8.882,8.882-8.882h85.682c4.896,0,8.882,3.985,8.882,8.882
			C307.722,459.427,303.737,463.412,298.841,463.412z"/>
	</g>
</g>
<g>
	<g>
		<rect x="202.71" y="31.347" width="15.673" height="15.674"/>
	</g>
</g>
<g>
	<g>
		<rect x="237.192" y="31.347" width="72.098" height="15.674"/>
	</g>
</g>
<g>
	<g>
		<rect x="393.404" y="138.365" width="15.674" height="15.673"/>
	</g>
</g>
<g>
	<g>
		<path d="M409.078,120.077V0h-7.837H110.759h-7.837v512h306.155V172.844h-15.674v323.483H118.596v-83.592h259.657v-15.673H118.596
			V78.367h274.808v41.709H409.078z M118.596,62.694v-47.02h274.808v47.02H118.596z"/>
	</g>
</g>
<g>
</g>
<g>
</g>
<g>
</g>
<g>
</g>
<g>
</g>
<g>
</g>
<g>
</g>
<g>
</g>
<g>
</g>
<g>
</g>
<g>
</g>
<g>
</g>
<g>
</g>
<g>
</g>
<g>
</g>
</svg>
