<?xml version="1.0" encoding="iso-8859-1"?>
<!-- Generator: Adobe Illustrator 19.0.0, SVG Export Plug-In . SVG Version: 6.00 Build 0)  -->
<svg version="1.1" id="Layer_1" xmlns="http://www.w3.org/2000/svg" xmlns:xlink="http://www.w3.org/1999/xlink" x="0px" y="0px"
	 viewBox="0 0 512 512" style="enable-background:new 0 0 512 512;" xml:space="preserve">
<g>
	<g>
		<circle cx="256" cy="449.434" r="9.906"/>
	</g>
</g>
<g>
	<g>
		<rect x="149.637" width="15.642" height="15.642"/>
	</g>
</g>
<g>
	<g>
		<path d="M450.757,0H184.049v15.642h246.335l-51.298,191.87h-16.964l45.881-171.604l-15.111-4.041l-46.961,175.645H132.915
			L81.617,15.642h49.772V0H61.243l55.481,207.511H83.943v79.25h131.614l-16.193,162.686c-1.588,15.966,3.676,31.944,14.444,43.838
			C224.577,505.178,239.956,512,256,512s31.423-6.822,42.192-18.715c10.769-11.894,16.033-27.872,14.444-43.838l-16.193-162.686
			h131.614v-79.25h-32.781L450.757,0z M412.415,223.153v16.684H287.283v15.642h125.132v15.642H279.166l17.904,179.877
			c1.152,11.578-2.665,23.165-10.475,31.79c-7.808,8.625-18.961,13.572-30.596,13.572c-11.635,0-22.788-4.947-30.596-13.572
			c-7.809-8.626-11.627-20.213-10.475-31.79l17.904-179.877H99.585v-47.967h21.32h270.189H412.415z"/>
	</g>
</g>
<g>
	<g>
		<rect x="242.746" y="239.837" width="20.244" height="15.642"/>
	</g>
</g>
<g>
</g>
<g>
</g>
<g>
</g>
<g>
</g>
<g>
</g>
<g>
</g>
<g>
</g>
<g>
</g>
<g>
</g>
<g>
</g>
<g>
</g>
<g>
</g>
<g>
</g>
<g>
</g>
<g>
</g>
</svg>
