<?xml version="1.0" encoding="iso-8859-1"?>
<!-- Generator: Adobe Illustrator 19.0.0, SVG Export Plug-In . SVG Version: 6.00 Build 0)  -->
<svg version="1.1" id="Layer_1" xmlns="http://www.w3.org/2000/svg" xmlns:xlink="http://www.w3.org/1999/xlink" x="0px" y="0px"
	 viewBox="0 0 512 512" style="enable-background:new 0 0 512 512;" xml:space="preserve">
<g>
	<g>
		<path d="M127.478,172.931c-45.804,0-83.069,37.264-83.069,83.069s37.265,83.069,83.069,83.069s83.069-37.264,83.069-83.069
			S173.282,172.931,127.478,172.931z M127.478,323.396c-37.162,0-67.396-30.234-67.396-67.396c0-37.163,30.234-67.396,67.396-67.396
			s67.396,30.233,67.396,67.396C194.873,293.162,164.639,323.396,127.478,323.396z"/>
	</g>
</g>
<g>
	<g>
		<rect x="346.384" y="143.673" width="15.673" height="15.673"/>
	</g>
</g>
<g>
	<g>
		<path d="M112.327,159.347h215.771v-15.673H112.327C50.389,143.673,0,194.064,0,256.001c0,61.936,50.389,112.326,112.327,112.326
			h18.286v-15.673h-18.286c-53.295,0-96.653-43.358-96.653-96.653S59.031,159.347,112.327,159.347z"/>
	</g>
</g>
<g>
	<g>
		<path d="M399.673,143.673h-18.808v15.673h18.808c53.295,0,96.653,43.359,96.653,96.654c0,53.294-43.358,96.652-96.653,96.652
			H183.38v15.673h216.294C461.611,368.327,512,317.936,512,256S461.611,143.673,399.673,143.673z"/>
	</g>
</g>
<g>
	<g>
		<rect x="148.898" y="352.653" width="15.673" height="15.673"/>
	</g>
</g>
<g>
</g>
<g>
</g>
<g>
</g>
<g>
</g>
<g>
</g>
<g>
</g>
<g>
</g>
<g>
</g>
<g>
</g>
<g>
</g>
<g>
</g>
<g>
</g>
<g>
</g>
<g>
</g>
<g>
</g>
</svg>
