<?xml version="1.0" encoding="iso-8859-1"?>
<!-- Generator: Adobe Illustrator 19.0.0, SVG Export Plug-In . SVG Version: 6.00 Build 0)  -->
<svg version="1.1" id="Layer_1" xmlns="http://www.w3.org/2000/svg" xmlns:xlink="http://www.w3.org/1999/xlink" x="0px" y="0px"
	 viewBox="0 0 512 512" style="enable-background:new 0 0 512 512;" xml:space="preserve">
<g>
	<g>
		<path d="M512,260.668l-49.069-74.45H349.518v114.939H0v63.739h37.346l-4.276,6.802l13.271,8.338l20.682-32.904H204.65
			l20.682,32.904l13.271-8.338l-4.275-6.8h20.104v19.851h96.131v-19.851h20.104l-4.275,6.8l13.271,8.338l20.682-32.904h57.169
			l20.682,32.904l13.271-8.338l-4.276-6.802H512V260.668z M418.482,201.891h36.008l35.122,53.29h-71.13V201.891z M334.89,369.075
			h-64.784v-24.033h64.784V369.075z M496.327,289.662h-19.331v15.674h19.331v43.886h-18.986l-11.166-17.763h-74.488l-11.167,17.765
			h-29.957v-19.855h-96.131v19.855h-29.956l-11.167-17.765H58.364l-11.166,17.763H15.673V316.83h349.518V201.891h37.616v68.963
			h93.518V289.662z"/>
	</g>
</g>
<g>
	<g>
		<path d="M176.587,133.177l-67.702,43.808l8.513,13.161l9.511-6.154v72.14h99.356v-72.142l9.513,6.155l8.514-13.159
			L176.587,133.177z M210.591,240.458h-68.009V173.85l34.006-22.003l34.003,22.001V240.458z"/>
	</g>
</g>
<g>
	<g>
		<path d="M15.151,100.841v189.127h322.873V100.841H15.151z M322.351,274.294H30.825v-157.78h291.526V274.294z"/>
	</g>
</g>
<g>
	<g>
		<path d="M428.931,353.69c-15.844,0-28.735,12.891-28.735,28.735c0,15.844,12.891,28.735,28.735,28.735
			c15.844,0,28.735-12.891,28.735-28.735C457.665,366.58,444.774,353.69,428.931,353.69z M428.931,395.486
			c-7.202,0-13.061-5.859-13.061-13.061c0-7.203,5.859-13.061,13.061-13.061c7.203,0,13.061,5.859,13.061,13.061
			C441.992,389.627,436.133,395.486,428.931,395.486z"/>
	</g>
</g>
<g>
	<g>
		<path d="M179.722,353.69c-15.845,0-28.735,12.891-28.735,28.735c0,15.844,12.89,28.735,28.735,28.735
			c15.845,0,28.735-12.891,28.735-28.735C208.457,366.58,195.567,353.69,179.722,353.69z M179.722,395.486
			c-7.203,0-13.061-5.859-13.061-13.061c0-7.203,5.859-13.061,13.061-13.061c7.202,0,13.061,5.859,13.061,13.061
			C192.784,389.627,186.925,395.486,179.722,395.486z"/>
	</g>
</g>
<g>
	<g>
		<path d="M91.951,353.69c-15.845,0-28.735,12.891-28.735,28.735c0,15.844,12.89,28.735,28.735,28.735
			c15.845,0,28.735-12.891,28.735-28.735C120.686,366.58,107.796,353.69,91.951,353.69z M91.951,395.486
			c-7.203,0-13.061-5.859-13.061-13.061c0-7.203,5.859-13.061,13.061-13.061c7.202,0,13.061,5.859,13.061,13.061
			C105.012,389.627,99.153,395.486,91.951,395.486z"/>
	</g>
</g>
<g>
</g>
<g>
</g>
<g>
</g>
<g>
</g>
<g>
</g>
<g>
</g>
<g>
</g>
<g>
</g>
<g>
</g>
<g>
</g>
<g>
</g>
<g>
</g>
<g>
</g>
<g>
</g>
<g>
</g>
</svg>
