<?xml version="1.0" encoding="iso-8859-1"?>
<!-- Generator: Adobe Illustrator 19.0.0, SVG Export Plug-In . SVG Version: 6.00 Build 0)  -->
<svg version="1.1" id="Layer_1" xmlns="http://www.w3.org/2000/svg" xmlns:xlink="http://www.w3.org/1999/xlink" x="0px" y="0px"
	 viewBox="0 0 512 512" style="enable-background:new 0 0 512 512;" xml:space="preserve">
<g>
	<g>
		<path d="M404.84,99.227c27.356,0,49.613-22.257,49.613-49.613S432.196,0,404.84,0H107.16C79.804,0,57.547,22.257,57.547,49.613
			V512h355.127V113.95h-15.667v101.838h-69.198v-67.892h-15.667v33.424h-69.198V99.227H404.84z M327.809,231.455h69.198v145.184
			h-69.198V231.455z M327.809,392.306h69.198v104.027h-69.198V392.306z M107.16,15.667c18.717,0,33.946,15.228,33.946,33.946
			c0,18.718-15.229,33.946-33.946,33.946S73.214,68.332,73.214,49.613C73.214,30.895,88.442,15.667,107.16,15.667z M73.214,85.746
			c8.881,8.35,20.822,13.48,33.946,13.48h35.252v47.625h0H73.214V85.746z M142.412,162.519v122.205H73.214c0,0,0-122.205,0-122.205
			H142.412z M73.214,300.391h69.198v110.716H73.214V300.391z M227.277,496.334H73.214c0,0,0-69.559,0-69.559h69.198v20.368h15.667
			v-54.836h69.198V496.334z M227.277,376.639h-69.198V254.434h69.198V376.639z M227.277,238.766h-69.198V99.227h69.198V238.766z
			 M312.141,496.333h-69.198v-58.07h69.198V496.333z M312.141,196.987v225.61h-69.198v-225.61H312.141z M143.292,83.559
			c8.35-8.882,13.48-20.823,13.48-33.946c0-13.123-5.132-25.064-13.48-33.946h261.547c18.718,0,33.947,15.228,33.947,33.946
			c0,18.718-15.229,33.946-33.946,33.946H143.292z"/>
	</g>
</g>
<g>
	<g>
		<rect x="312.146" y="113.954" width="15.667" height="15.667"/>
	</g>
</g>
<g>
	<g>
		<rect x="142.416" y="465.947" width="15.667" height="15.667"/>
	</g>
</g>
<g>
</g>
<g>
</g>
<g>
</g>
<g>
</g>
<g>
</g>
<g>
</g>
<g>
</g>
<g>
</g>
<g>
</g>
<g>
</g>
<g>
</g>
<g>
</g>
<g>
</g>
<g>
</g>
<g>
</g>
</svg>
