<?xml version="1.0" encoding="iso-8859-1"?>
<!-- Generator: Adobe Illustrator 19.0.0, SVG Export Plug-In . SVG Version: 6.00 Build 0)  -->
<svg version="1.1" id="Layer_1" xmlns="http://www.w3.org/2000/svg" xmlns:xlink="http://www.w3.org/1999/xlink" x="0px" y="0px"
	 viewBox="0 0 512 512" style="enable-background:new 0 0 512 512;" xml:space="preserve">
<g>
	<g>
		<rect x="126.955" y="230.774" width="15.673" height="15.673"/>
	</g>
</g>
<g>
	<g>
		<rect x="126.955" y="265.256" width="15.673" height="98.858"/>
	</g>
</g>
<g>
	<g>
		<polygon points="111.804,105.794 111.804,121.467 126.955,121.467 126.955,212.491 142.629,212.491 142.629,121.467 
			248.163,121.467 248.163,364.121 263.837,364.121 263.837,121.467 369.371,121.467 369.371,364.121 385.045,364.121 
			385.045,121.467 400.196,121.467 400.196,105.794 		"/>
	</g>
</g>
<g>
	<g>
		<rect x="88.816" y="83.736" width="334.367" height="15.673"/>
	</g>
</g>
<g>
	<g>
		<path d="M431.02,412.59v-34.364H80.98v34.364H34.482v15.673h443.037V412.59H431.02z M415.347,412.59H96.653V393.9h318.694V412.59z
			"/>
	</g>
</g>
<g>
	<g>
		<rect x="496.327" y="412.586" width="15.673" height="15.673"/>
	</g>
</g>
<g>
	<g>
		<rect y="412.586" width="15.673" height="15.673"/>
	</g>
</g>
<g>
	<g>
		
			<rect x="154.06" y="215.666" transform="matrix(0.5736 -0.8192 0.8192 0.5736 -102.9061 249.3272)" width="67.922" height="15.674"/>
	</g>
</g>
<g>
	<g>
		
			<rect x="169.129" y="243.487" transform="matrix(0.5736 -0.8192 0.8192 0.5736 -119.27 273.5345)" width="67.922" height="15.674"/>
	</g>
</g>
<g>
	<g>
		
			<rect x="274.943" y="215.66" transform="matrix(0.5736 -0.8192 0.8192 0.5736 -51.3539 348.3464)" width="67.921" height="15.674"/>
	</g>
</g>
<g>
	<g>
		
			<rect x="289.995" y="243.472" transform="matrix(0.5736 -0.8191 0.8191 0.5736 -67.7246 372.5115)" width="67.916" height="15.673"/>
	</g>
</g>
<g>
</g>
<g>
</g>
<g>
</g>
<g>
</g>
<g>
</g>
<g>
</g>
<g>
</g>
<g>
</g>
<g>
</g>
<g>
</g>
<g>
</g>
<g>
</g>
<g>
</g>
<g>
</g>
<g>
</g>
</svg>
