<?xml version="1.0" encoding="iso-8859-1"?>
<!-- Generator: Adobe Illustrator 19.0.0, SVG Export Plug-In . SVG Version: 6.00 Build 0)  -->
<svg version="1.1" id="Layer_1" xmlns="http://www.w3.org/2000/svg" xmlns:xlink="http://www.w3.org/1999/xlink" x="0px" y="0px"
	 viewBox="0 0 512 512" style="enable-background:new 0 0 512 512;" xml:space="preserve">
<g>
	<g>
		<path d="M307.823,240.271V137.148H281.65V26.173h-95.595c2.945-6.184,9.258-10.469,16.552-10.469h89.512v69.359h15.704V0H202.607
			c-18.761,0-34.025,15.263-34.025,34.025v7.852h97.364v95.27h-97.364v270.631h15.704V152.851h107.834v87.42h-58.628v73.285h44.472
			l-54.942,46.615v136.125h-38.736v-35.648h-15.704V512h70.144V367.443l27.22-23.095v58.719h41.877v-89.511h35.596v-73.285H307.823z
			 M292.119,387.363H281.65v-56.339l10.469-8.883V387.363z M327.715,297.852h-78.52v-41.877h78.52V297.852z"/>
	</g>
</g>
<g>
	<g>
		<rect x="292.114" y="103.908" width="15.704" height="15.704"/>
	</g>
</g>
<g>
	<g>
		<rect x="168.587" y="426.1" width="15.704" height="15.704"/>
	</g>
</g>
<g>
</g>
<g>
</g>
<g>
</g>
<g>
</g>
<g>
</g>
<g>
</g>
<g>
</g>
<g>
</g>
<g>
</g>
<g>
</g>
<g>
</g>
<g>
</g>
<g>
</g>
<g>
</g>
<g>
</g>
</svg>
